<svg width="49" height="62" viewBox="0 0 49 62" fill="none" xmlns="http://www.w3.org/2000/svg">
<path d="M21.0672 61.8278C19.8871 61.6007 18.6865 61.4435 17.5302 61.1353C10.8013 59.3437 5.80006 53.8545 4.99402 47.3741C4.85458 46.2559 4.85458 45.1187 4.84778 43.9894C4.82737 41.2114 4.94641 38.4287 4.81547 35.6555C4.64542 32.0833 8.00222 30.7761 10.6618 31.5544C11.4389 31.7816 12.1736 32.1405 13 32.4661C13 32.2723 13.0017 32.0659 13 31.8594C12.9762 28.327 12.9235 24.7945 12.9405 21.2637C12.9456 19.9581 12.9983 18.6366 13.2279 17.3532C13.5782 15.3821 15.6698 13.7573 17.8431 13.5873C20.37 13.3904 22.6113 14.6182 23.47 16.7529C23.7183 17.3691 23.8408 18.0616 23.8595 18.7224C23.9105 20.5855 23.8765 22.4502 23.8765 24.3943C25.4137 23.6764 26.9476 23.481 28.5325 24.0321C30.0952 24.5753 31.1461 25.6109 31.7957 27.0849C33.5286 26.1621 35.3022 25.981 37.1064 26.7704C38.8971 27.555 39.868 28.9353 40.2269 30.7619C41.5771 30.0963 42.963 29.9343 44.3914 30.2965C46.7126 30.8842 48.3485 32.8775 48.357 35.1393C48.3706 38.5923 48.3893 42.0453 48.3519 45.4983C48.2635 53.8624 41.4886 60.8192 32.5865 61.7246C32.4436 61.7389 32.3059 61.7929 32.1647 61.8278C28.4627 61.8278 24.7658 61.8278 21.0672 61.8278ZM15.7106 31.8927C15.7106 36.2003 15.7106 40.5062 15.7106 44.8137C15.7106 45.9748 15.2294 46.5911 14.3332 46.5799C13.4558 46.5688 13.0119 45.9732 13 44.8407C12.9745 42.4011 12.9847 39.9582 12.8912 37.5202C12.8147 35.5506 11.4934 34.2085 9.51057 33.9067C8.22669 33.7114 7.55158 34.2339 7.54988 35.4379C7.54818 38.6336 7.52948 41.8293 7.56009 45.0234C7.56859 45.9716 7.64851 46.9278 7.81346 47.8633C8.87118 53.8894 14.6818 58.8767 21.1829 59.1976C24.5312 59.3628 27.8931 59.2659 31.2499 59.2738C31.7158 59.2754 32.1852 59.2309 32.646 59.1658C40.2949 58.0889 45.6056 52.3598 45.643 45.1314C45.66 41.8563 45.6498 38.5827 45.6464 35.3076C45.6447 33.7574 44.5257 32.6345 42.9766 32.6107C41.4257 32.5852 40.2558 33.6669 40.2048 35.2044C40.1758 36.0367 40.2116 36.8721 40.1877 37.7044C40.169 38.3334 39.7184 38.8131 39.096 38.9354C38.5127 39.0497 37.8597 38.7606 37.6285 38.2285C37.5213 37.9808 37.4924 37.6901 37.4924 37.4185C37.4805 35.4935 37.5009 33.5684 37.4754 31.6434C37.4686 31.1971 37.4006 30.7221 37.2238 30.3108C36.7476 29.2069 35.462 28.6176 34.1917 28.8511C32.9946 29.0703 32.0576 30.0916 32.044 31.2701C32.0202 33.1745 32.0355 35.0805 32.0355 36.9865C32.0355 37.185 32.0406 37.3836 32.0338 37.5821C32.01 38.3874 31.4556 38.9512 30.687 38.9576C29.915 38.9639 29.3351 38.4096 29.3317 37.6012C29.3198 34.7835 29.3334 31.9642 29.3164 29.1465C29.3147 28.7367 29.2654 28.3063 29.1259 27.9219C28.7093 26.7799 27.4526 26.1017 26.2079 26.2907C24.8339 26.4988 23.8867 27.4947 23.8799 28.8019C23.8646 31.6005 23.8748 34.3991 23.8748 37.1977C23.8748 38.3572 23.3901 38.9719 22.4923 38.9576C21.6165 38.9433 21.1659 38.3524 21.1642 37.2136C21.1642 31.2193 21.1659 25.2266 21.1608 19.2322C21.1608 18.8764 21.1403 18.5143 21.0655 18.1681C20.8224 17.061 19.7357 16.1731 18.5726 16.0953C17.423 16.0191 16.2752 16.702 15.8977 17.7471C15.765 18.114 15.7225 18.5238 15.7208 18.9146C15.7072 23.2396 15.7106 27.5662 15.7106 31.8927Z" fill="white"/>
<path d="M19.6649 0.844238C20.7873 1.0396 21.9283 1.16826 23.0285 1.44304C31.094 3.45544 36.5391 10.4711 36.0782 18.2634C36.017 19.2862 35.7976 20.3059 35.5902 21.3161C35.4201 22.1468 34.7212 22.5645 33.9186 22.3993C33.1534 22.2421 32.7401 21.5702 32.951 20.7189C33.3234 19.2195 33.4475 17.7122 33.3336 16.1731C32.8762 9.99456 27.5179 4.52597 20.9709 3.58727C12.8595 2.42462 5.60172 7.01804 3.80428 14.4625C3.30603 16.5289 3.37745 18.5953 3.88931 20.6538C4.11037 21.5417 3.73456 22.2294 2.95743 22.3962C2.12078 22.5772 1.48819 22.1405 1.23991 21.2129C-1.1561 12.242 5.1987 2.95194 14.9341 1.19526C15.6585 1.06501 16.388 0.960186 17.1142 0.844238C17.9644 0.844238 18.8147 0.844238 19.6649 0.844238Z" fill="white"/>
<path d="M10.2986 17.663C10.3207 17.96 10.3564 18.257 10.3615 18.5541C10.3734 19.264 9.90065 19.7945 9.18984 19.8898C8.45862 19.9867 7.87024 19.6214 7.70529 18.8844C7.37029 17.3946 7.55395 15.9206 8.01649 14.4784C9.52484 9.78653 14.1349 6.91167 19.5323 7.27857C24.3142 7.60417 28.4651 11.2827 29.1827 15.9016C29.3222 16.7942 29.2609 17.7202 29.2167 18.6287C29.181 19.3482 28.5348 19.8263 27.7934 19.7834C27.0571 19.7405 26.4976 19.1926 26.5503 18.4619C26.6456 17.1405 26.5758 15.8523 26.0504 14.6007C24.5828 11.0953 20.5917 9.10196 16.6568 9.92471C12.8323 10.722 10.052 14.1036 10.2986 17.663Z" fill="white"/>
</svg>
