<svg width="25" height="25" viewBox="0 0 25 25" fill="none" xmlns="http://www.w3.org/2000/svg">
<g id="Comment">
<g id="Vector">
<path d="M21.252 16.8375C23.1847 14.1259 22.8893 10.4109 20.2495 7.99094C19.0434 6.88527 17.5057 6.19695 15.8448 6.00473C15.8344 5.9918 15.8236 5.97932 15.8122 5.9673C14.3673 4.46633 12.2913 3.60547 10.1167 3.60547C5.97848 3.60547 2.5 6.68879 2.5 10.6367C2.5 12.0209 2.92996 13.3478 3.74672 14.4938L2.60574 18.076C2.57066 18.1862 2.56892 18.3042 2.60074 18.4153C2.63256 18.5263 2.69652 18.6255 2.78458 18.7004C2.87263 18.7752 2.98084 18.8223 3.09561 18.8358C3.21038 18.8493 3.32657 18.8285 3.42957 18.7762L6.89937 17.0118C7.61195 17.3187 8.36758 17.52 9.15008 17.6116C10.6595 19.1989 12.7467 20.0117 14.882 20.0117C15.992 20.0117 17.098 19.7855 18.0992 19.3555L21.5692 21.12C21.6514 21.1618 21.7423 21.1836 21.8346 21.1836C22.23 21.1836 22.5135 20.7982 22.393 20.4198L21.252 16.8375ZM7.13586 15.8328C7.0549 15.7944 6.9662 15.775 6.87659 15.7762C6.78697 15.7775 6.69883 15.7992 6.61894 15.8398L4.14758 17.0965L4.95461 14.5627C4.98355 14.4718 4.98989 14.3752 4.97305 14.2814C4.95622 14.1875 4.91673 14.0992 4.85801 14.0241C4.08199 13.0307 3.6718 11.8594 3.6718 10.6367C3.6718 7.40586 6.56297 4.77734 10.1167 4.77734C11.5478 4.77734 12.9255 5.2109 14.043 5.99164C10.2795 6.37008 7.26531 9.30969 7.26531 12.9805C7.26531 14.1222 7.55797 15.2213 8.10973 16.2061C7.776 16.1069 7.45042 15.9821 7.13586 15.8328ZM18.3798 18.1836C18.2999 18.1429 18.2118 18.1212 18.1222 18.12C18.0325 18.1188 17.9438 18.1381 17.8629 18.1766C16.9494 18.6105 15.9187 18.8398 14.882 18.8398C11.3283 18.8398 8.43711 16.2113 8.43711 12.9805C8.43711 9.74961 11.3283 7.12109 14.882 7.12109C18.4358 7.12109 21.327 9.74961 21.327 12.9805C21.327 14.2032 20.9168 15.3744 20.1407 16.3678C20.082 16.4429 20.0425 16.5312 20.0257 16.6251C20.0089 16.719 20.0152 16.8155 20.0441 16.9064L20.8511 19.4402L18.3798 18.1836Z" fill="#6F7C8E"/>
<path d="M12.4994 13.5664C12.823 13.5664 13.0853 13.3041 13.0853 12.9805C13.0853 12.6569 12.823 12.3945 12.4994 12.3945C12.1758 12.3945 11.9134 12.6569 11.9134 12.9805C11.9134 13.3041 12.1758 13.5664 12.4994 13.5664Z" fill="#6F7C8E"/>
<path d="M14.843 13.5664C15.1666 13.5664 15.4289 13.3041 15.4289 12.9805C15.4289 12.6569 15.1666 12.3945 14.843 12.3945C14.5194 12.3945 14.2571 12.6569 14.2571 12.9805C14.2571 13.3041 14.5194 13.5664 14.843 13.5664Z" fill="#6F7C8E"/>
<path d="M17.1866 13.5664C17.5102 13.5664 17.7725 13.3041 17.7725 12.9805C17.7725 12.6569 17.5102 12.3945 17.1866 12.3945C16.863 12.3945 16.6007 12.6569 16.6007 12.9805C16.6007 13.3041 16.863 13.5664 17.1866 13.5664Z" fill="#6F7C8E"/>
</g>
</g>
</svg>
