<svg width="24" height="23" viewBox="0 0 24 23" fill="none" xmlns="http://www.w3.org/2000/svg">
<path d="M4.03241 11.944C3.68906 11.6443 3.68906 11.1584 4.03241 10.8587L6.37697 8.81219C6.72032 8.51249 7.277 8.51249 7.62036 8.81219C7.96371 9.1119 7.96371 9.59781 7.62036 9.89752L6.7767 10.6339L15.2046 10.6339C15.6902 10.6339 16.0838 10.9775 16.0838 11.4014C16.0838 11.8252 15.6902 12.1688 15.2046 12.1688L6.7767 12.1688L7.62036 12.9052C7.96371 13.2049 7.96371 13.6908 7.62036 13.9905C7.277 14.2902 6.72032 14.2902 6.37697 13.9905L4.03241 11.944Z" fill="white"/>
<path fill-rule="evenodd" clip-rule="evenodd" d="M13.9683 0.401368H15.2692C16.8724 0.401347 18.1646 0.40133 19.1809 0.520601C20.2361 0.644432 21.1246 0.909346 21.8302 1.52526C22.5358 2.14118 22.8393 2.91668 22.9811 3.83772C23.1178 4.72485 23.1178 5.8528 23.1177 7.2522V15.5505C23.1178 16.9499 23.1178 18.0779 22.9811 18.965C22.8393 19.8861 22.5358 20.6616 21.8302 21.2775C21.1246 21.8934 20.2361 22.1583 19.1809 22.2821C18.1646 22.4014 16.8724 22.4014 15.2692 22.4014H13.9683C12.3651 22.4014 11.0728 22.4014 10.0565 22.2821C9.00133 22.1583 8.11289 21.8934 7.40728 21.2775C6.93961 20.8693 6.64777 20.39 6.46298 19.8431C5.34772 19.8418 4.41855 19.8311 3.66574 19.7427C2.77017 19.6376 1.99373 19.4102 1.37395 18.8692C0.754179 18.3282 0.493603 17.6505 0.373197 16.8687C0.258008 16.1209 0.25803 15.1736 0.258057 14.0145V8.78829C0.25803 7.62912 0.258008 6.68185 0.373197 5.93399C0.493603 5.15228 0.754179 4.47454 1.37395 3.93355C1.99373 3.39256 2.77017 3.16511 3.66574 3.06001C4.41855 2.97166 5.34772 2.96096 6.46298 2.95968C6.64777 2.4127 6.93961 1.93348 7.40728 1.52526C8.11289 0.909347 9.00133 0.644432 10.0565 0.520601C11.0728 0.40133 12.3651 0.401347 13.9683 0.401368ZM6.12176 16.5219C6.12596 17.1814 6.13844 17.7755 6.1814 18.3074C5.20315 18.3041 4.47591 18.2891 3.90004 18.2215C3.19947 18.1393 2.85595 17.9921 2.61734 17.7839C2.37874 17.5756 2.21012 17.2757 2.11593 16.6642C2.01834 16.0306 2.01648 15.1871 2.01648 13.9595V8.84323C2.01648 7.61561 2.01834 6.77211 2.11593 6.13851C2.21012 5.527 2.37874 5.22715 2.61734 5.01887C2.85595 4.8106 3.19947 4.66342 3.90004 4.58121C4.47591 4.51362 5.20315 4.49863 6.1814 4.49532C6.13844 5.02723 6.12596 5.62129 6.12176 6.28082C6.11905 6.70466 6.51049 7.05016 6.99606 7.05252C7.48162 7.05488 7.87744 6.7132 7.88015 6.28936C7.88728 5.17043 7.92057 4.37732 8.04724 3.7754C8.16929 3.19541 8.36527 2.8597 8.65067 2.61059C8.97511 2.32739 9.43062 2.14275 10.2908 2.0418C11.1763 1.93788 12.3499 1.93625 14.0326 1.93625H15.2049C16.8876 1.93625 18.0612 1.93788 18.9466 2.0418C19.8068 2.14275 20.2623 2.32739 20.5868 2.61059C20.9112 2.89379 21.1228 3.2914 21.2384 4.04223C21.3575 4.81515 21.3593 5.83955 21.3593 7.30834V15.4944C21.3593 16.9632 21.3575 17.9876 21.2384 18.7605C21.1228 19.5113 20.9112 19.9089 20.5868 20.1921C20.2623 20.4753 19.8068 20.66 18.9466 20.7609C18.0612 20.8649 16.8876 20.8665 15.2049 20.8665H14.0326C12.3499 20.8665 11.1763 20.8649 10.2908 20.7609C9.43062 20.66 8.97511 20.4753 8.65066 20.1921C8.36527 19.943 8.16929 19.6073 8.04724 19.0273C7.92057 18.4254 7.88728 17.6323 7.88015 16.5134C7.87744 16.0895 7.48162 15.7479 6.99606 15.7502C6.51049 15.7526 6.11905 16.0981 6.12176 16.5219Z" fill="white"/>
</svg>
