<svg width="155" height="155" viewBox="0 0 155 155" fill="none" xmlns="http://www.w3.org/2000/svg">
<circle cx="77.5" cy="77.5" r="77.5" fill="#7012CE" fill-opacity="0.05"/>
<circle opacity="0.63" cx="77.4991" cy="77.4996" r="73.0533" fill="#7012CE" fill-opacity="0.05"/>
<circle cx="77.5006" cy="77.4997" r="64.1598" fill="url(#paint0_linear_350_2881)"/>
<path d="M54.4471 116.843C53.8109 116.843 53.2201 116.731 52.6748 116.508C52.1295 116.277 51.6503 115.959 51.2372 115.554C50.8323 115.141 50.5184 114.661 50.2953 114.116C50.0805 113.571 49.973 112.984 49.973 112.356C49.973 111.728 50.0805 111.142 50.2953 110.596C50.5184 110.051 50.8323 109.576 51.2372 109.171C51.6503 108.766 52.1254 108.448 52.6624 108.217C53.2077 107.986 53.8026 107.87 54.4471 107.87C55.1411 107.87 55.7525 107.986 56.2813 108.217C56.8101 108.44 57.2769 108.75 57.6818 109.146L56.5416 110.287C56.302 110.022 56.0087 109.816 55.6616 109.667C55.3146 109.518 54.9098 109.444 54.4471 109.444C54.0422 109.444 53.6704 109.514 53.3317 109.654C53.0012 109.787 52.712 109.985 52.4641 110.249C52.2163 110.506 52.0262 110.815 51.894 111.179C51.7618 111.534 51.6957 111.927 51.6957 112.356C51.6957 112.794 51.7618 113.191 51.894 113.546C52.0262 113.901 52.2163 114.211 52.4641 114.476C52.712 114.732 53.0012 114.93 53.3317 115.07C53.6704 115.211 54.0422 115.281 54.4471 115.281C54.9346 115.281 55.3518 115.207 55.6988 115.058C56.0541 114.909 56.3515 114.699 56.5911 114.426L57.7313 115.566C57.3265 115.971 56.8555 116.285 56.3185 116.508C55.7814 116.731 55.1576 116.843 54.4471 116.843ZM58.9031 116.719V108.006H60.5886V116.719H58.9031ZM64.3686 116.719V108.006H66.0541V116.719H64.3686ZM59.9689 112.964V111.476H64.8396V112.964H59.9689ZM67.8351 116.719V108.006H69.5206V116.719H67.8351ZM69.0744 116.719V115.232H73.8955V116.719H69.0744ZM69.0744 112.988V111.551H73.4617V112.988H69.0744ZM69.0744 109.493V108.006H73.8335V109.493H69.0744ZM79.1735 116.843C78.5373 116.843 77.9465 116.731 77.4012 116.508C76.8559 116.277 76.3767 115.959 75.9636 115.554C75.5587 115.141 75.2447 114.661 75.0217 114.116C74.8068 113.571 74.6994 112.984 74.6994 112.356C74.6994 111.728 74.8068 111.142 75.0217 110.596C75.2447 110.051 75.5587 109.576 75.9636 109.171C76.3767 108.766 76.8517 108.448 77.3888 108.217C77.9341 107.986 78.529 107.87 79.1735 107.87C79.8675 107.87 80.4789 107.986 81.0077 108.217C81.5365 108.44 82.0033 108.75 82.4081 109.146L81.2679 110.287C81.0283 110.022 80.735 109.816 80.388 109.667C80.041 109.518 79.6361 109.444 79.1735 109.444C78.7686 109.444 78.3968 109.514 78.058 109.654C77.7276 109.787 77.4384 109.985 77.1905 110.249C76.9426 110.506 76.7526 110.815 76.6204 111.179C76.4882 111.534 76.4221 111.927 76.4221 112.356C76.4221 112.794 76.4882 113.191 76.6204 113.546C76.7526 113.901 76.9426 114.211 77.1905 114.476C77.4384 114.732 77.7276 114.93 78.058 115.07C78.3968 115.211 78.7686 115.281 79.1735 115.281C79.6609 115.281 80.0782 115.207 80.4252 115.058C80.7805 114.909 81.0779 114.699 81.3175 114.426L82.4577 115.566C82.0529 115.971 81.5819 116.285 81.0449 116.508C80.5078 116.731 79.884 116.843 79.1735 116.843ZM88.8967 116.719L85.1167 112.17L88.7975 108.006H90.9044L86.8022 112.53L86.8146 111.749L91.0408 116.719H88.8967ZM83.6295 116.719V108.006H85.315V116.719H83.6295ZM94.2317 116.719V108.006H95.9172V116.719H94.2317ZM97.7052 116.719V108.006H98.8826L99.3907 109.692V116.719H97.7052ZM103.728 116.719L98.5604 110.026L98.8826 108.006L104.051 114.699L103.728 116.719ZM103.728 116.719L103.245 115.083V108.006H104.943V116.719H103.728Z" fill="white"/>
<path d="M74.0675 97.8283C72.8873 97.6012 71.6868 97.4439 70.5304 97.1358C63.8015 95.3442 58.8003 89.8549 57.9943 83.3746C57.8548 82.2564 57.8548 81.1192 57.848 79.9899C57.8276 77.2119 57.9467 74.4292 57.8157 71.656C57.6457 68.0838 61.0025 66.7766 63.6621 67.5549C64.4392 67.782 65.1738 68.141 66.0003 68.4666C66.0003 68.2728 66.002 68.0664 66.0003 67.8599C65.9764 64.3274 65.9237 60.795 65.9407 57.2642C65.9458 55.9586 65.9986 54.6371 66.2281 53.3537C66.5784 51.3826 68.6701 49.7578 70.8433 49.5878C73.3703 49.3909 75.6115 50.6186 76.4703 52.7533C76.7186 53.3696 76.841 54.0621 76.8597 54.7229C76.9107 56.586 76.8767 58.4507 76.8767 60.3948C78.414 59.6768 79.9478 59.4815 81.5327 60.0326C83.0955 60.5758 84.1464 61.6114 84.796 63.0854C86.5288 62.1626 88.3024 61.9815 90.1067 62.7709C91.8973 63.5555 92.8683 64.9358 93.2271 66.7623C94.5773 66.0968 95.9632 65.9348 97.3916 66.297C99.7128 66.8846 101.349 68.878 101.357 71.1398C101.371 74.5928 101.39 78.0458 101.352 81.4988C101.264 89.8629 94.4889 96.8197 85.5867 97.7251C85.4439 97.7394 85.3061 97.7934 85.165 97.8283C81.463 97.8283 77.7661 97.8283 74.0675 97.8283ZM68.7109 67.8932C68.7109 72.2008 68.7109 76.5067 68.7109 80.8142C68.7109 81.9753 68.2296 82.5916 67.3335 82.5804C66.456 82.5693 66.0122 81.9737 66.0003 80.8412C65.9747 78.4016 65.985 75.9587 65.8914 73.5207C65.8149 71.5511 64.4936 70.209 62.5108 69.9072C61.2269 69.7119 60.5518 70.2344 60.5501 71.4384C60.5484 74.6341 60.5297 77.8298 60.5603 81.0239C60.5688 81.9721 60.6488 82.9283 60.8137 83.8638C61.8714 89.8899 67.6821 94.8772 74.1831 95.1981C77.5314 95.3633 80.8933 95.2664 84.2501 95.2743C84.7161 95.2759 85.1854 95.2314 85.6462 95.1663C93.2951 94.0894 98.6058 88.3603 98.6432 81.1319C98.6602 77.8568 98.65 74.5832 98.6466 71.3081C98.6449 69.7579 97.526 68.635 95.9768 68.6111C94.426 68.5857 93.256 69.6674 93.205 71.2049C93.1761 72.0372 93.2118 72.8726 93.188 73.7049C93.1693 74.3339 92.7187 74.8135 92.0963 74.9358C91.513 75.0502 90.86 74.7611 90.6287 74.229C90.5216 73.9813 90.4927 73.6906 90.4927 73.419C90.4808 71.494 90.5012 69.5689 90.4757 67.6439C90.4689 67.1975 90.4009 66.7226 90.224 66.3113C89.7479 65.2074 88.4623 64.6181 87.192 64.8516C85.9948 65.0708 85.0579 66.0921 85.0443 67.2706C85.0204 69.175 85.0358 71.081 85.0358 72.987C85.0358 73.1855 85.0409 73.3841 85.0341 73.5826C85.0102 74.3879 84.4559 74.9517 83.6872 74.9581C82.9152 74.9644 82.3353 74.4101 82.3319 73.6017C82.32 70.784 82.3336 67.9647 82.3166 65.147C82.3149 64.7372 82.2656 64.3068 82.1262 63.9224C81.7096 62.7804 80.4529 62.1022 79.2081 62.2912C77.8341 62.4993 76.8869 63.4952 76.8801 64.8024C76.8648 67.601 76.875 70.3996 76.875 73.1982C76.875 74.3577 76.3904 74.9724 75.4925 74.9581C74.6167 74.9438 74.1661 74.3529 74.1644 73.2141C74.1644 67.2198 74.1661 61.227 74.161 55.2327C74.161 54.8769 74.1406 54.5148 74.0658 54.1685C73.8226 53.0615 72.736 52.1736 71.5728 52.0958C70.4233 52.0195 69.2754 52.7025 68.8979 53.7476C68.7653 54.1145 68.7228 54.5243 68.7211 54.9151C68.7075 59.2401 68.7109 63.5666 68.7109 67.8932Z" fill="white"/>
<path d="M72.6652 36.8447C73.7875 37.0401 74.9285 37.1687 76.0288 37.4435C84.0943 39.4559 89.5393 46.4715 89.0785 54.2638C89.0173 55.2867 88.7979 56.3064 88.5904 57.3166C88.4204 58.1473 87.7215 58.565 86.9188 58.3998C86.1536 58.2426 85.7404 57.5707 85.9512 56.7194C86.3237 55.22 86.4478 53.7127 86.3339 52.1736C85.8764 45.995 80.5181 40.5265 73.9712 39.5878C65.8597 38.4251 58.602 43.0185 56.8045 50.463C56.3063 52.5294 56.3777 54.5958 56.8895 56.6543C57.1106 57.5421 56.7348 58.2299 55.9577 58.3967C55.121 58.5777 54.4884 58.1409 54.2402 57.2134C51.8441 48.2425 58.1989 38.9524 67.9344 37.1957C68.6588 37.0655 69.3883 36.9607 70.1144 36.8447C70.9647 36.8447 71.8149 36.8447 72.6652 36.8447Z" fill="white"/>
<path d="M63.2988 53.6635C63.3209 53.9605 63.3566 54.2575 63.3617 54.5545C63.3736 55.2645 62.9009 55.795 62.1901 55.8903C61.4589 55.9872 60.8705 55.6219 60.7055 54.8849C60.3705 53.3951 60.5542 51.9211 61.0167 50.4789C62.5251 45.787 67.1352 42.9122 72.5326 43.2791C77.3144 43.6047 81.4653 47.2832 82.183 51.9021C82.3224 52.7947 82.2612 53.7207 82.217 54.6292C82.1813 55.3487 81.5351 55.8268 80.7936 55.7839C80.0573 55.741 79.4979 55.1931 79.5506 54.4624C79.6458 53.1409 79.5761 51.8528 79.0506 50.6012C77.5831 47.0958 73.592 45.1024 69.657 45.9252C65.8326 46.7225 63.0522 50.1041 63.2988 53.6635Z" fill="white"/>
<defs>
<linearGradient id="paint0_linear_350_2881" x1="128.956" y1="-5.39991" x2="39.7035" y2="154.047" gradientUnits="userSpaceOnUse">
<stop stop-color="#3862D0"/>
<stop offset="1" stop-color="#1BAEC1"/>
</linearGradient>
</defs>
</svg>
