<svg width="170" height="172" viewBox="0 0 155 156" fill="none" xmlns="http://www.w3.org/2000/svg">
<circle cx="77.5" cy="78" r="77.5" fill="#7012CE" fill-opacity="0.05"/>
<circle opacity="0.63" cx="77.4991" cy="77.9996" r="73.0533" fill="#7012CE" fill-opacity="0.05"/>
<circle cx="77.5006" cy="77.9997" r="64.1598" fill="url(#paint0_linear_801_4996)"/>
<path d="M54.4471 117.343C53.8109 117.343 53.2201 117.231 52.6748 117.008C52.1295 116.777 51.6503 116.459 51.2372 116.054C50.8323 115.641 50.5184 115.161 50.2953 114.616C50.0805 114.071 49.973 113.484 49.973 112.856C49.973 112.228 50.0805 111.642 50.2953 111.096C50.5184 110.551 50.8323 110.076 51.2372 109.671C51.6503 109.266 52.1254 108.948 52.6624 108.717C53.2077 108.486 53.8026 108.37 54.4471 108.37C55.1411 108.37 55.7525 108.486 56.2813 108.717C56.8101 108.94 57.2769 109.25 57.6818 109.646L56.5416 110.787C56.302 110.522 56.0087 110.316 55.6616 110.167C55.3146 110.018 54.9098 109.944 54.4471 109.944C54.0422 109.944 53.6704 110.014 53.3317 110.154C53.0012 110.287 52.712 110.485 52.4641 110.749C52.2163 111.006 52.0262 111.315 51.894 111.679C51.7618 112.034 51.6957 112.427 51.6957 112.856C51.6957 113.294 51.7618 113.691 51.894 114.046C52.0262 114.401 52.2163 114.711 52.4641 114.976C52.712 115.232 53.0012 115.43 53.3317 115.57C53.6704 115.711 54.0422 115.781 54.4471 115.781C54.9346 115.781 55.3518 115.707 55.6988 115.558C56.0541 115.409 56.3515 115.199 56.5911 114.926L57.7313 116.066C57.3265 116.471 56.8555 116.785 56.3185 117.008C55.7814 117.231 55.1576 117.343 54.4471 117.343ZM58.9031 117.219V108.506H60.5886V117.219H58.9031ZM64.3686 117.219V108.506H66.0541V117.219H64.3686ZM59.9689 113.464V111.976H64.8396V113.464H59.9689ZM67.8351 117.219V108.506H69.5206V117.219H67.8351ZM69.0744 117.219V115.732H73.8955V117.219H69.0744ZM69.0744 113.488V112.051H73.4617V113.488H69.0744ZM69.0744 109.993V108.506H73.8335V109.993H69.0744ZM79.1735 117.343C78.5373 117.343 77.9465 117.231 77.4012 117.008C76.8559 116.777 76.3767 116.459 75.9636 116.054C75.5587 115.641 75.2447 115.161 75.0217 114.616C74.8068 114.071 74.6994 113.484 74.6994 112.856C74.6994 112.228 74.8068 111.642 75.0217 111.096C75.2447 110.551 75.5587 110.076 75.9636 109.671C76.3767 109.266 76.8517 108.948 77.3888 108.717C77.9341 108.486 78.529 108.37 79.1735 108.37C79.8675 108.37 80.4789 108.486 81.0077 108.717C81.5365 108.94 82.0033 109.25 82.4081 109.646L81.2679 110.787C81.0283 110.522 80.735 110.316 80.388 110.167C80.041 110.018 79.6361 109.944 79.1735 109.944C78.7686 109.944 78.3968 110.014 78.058 110.154C77.7276 110.287 77.4384 110.485 77.1905 110.749C76.9426 111.006 76.7526 111.315 76.6204 111.679C76.4882 112.034 76.4221 112.427 76.4221 112.856C76.4221 113.294 76.4882 113.691 76.6204 114.046C76.7526 114.401 76.9426 114.711 77.1905 114.976C77.4384 115.232 77.7276 115.43 78.058 115.57C78.3968 115.711 78.7686 115.781 79.1735 115.781C79.6609 115.781 80.0782 115.707 80.4252 115.558C80.7805 115.409 81.0779 115.199 81.3175 114.926L82.4577 116.066C82.0529 116.471 81.5819 116.785 81.0449 117.008C80.5078 117.231 79.884 117.343 79.1735 117.343ZM88.8967 117.219L85.1167 112.67L88.7975 108.506H90.9044L86.8022 113.03L86.8146 112.249L91.0408 117.219H88.8967ZM83.6295 117.219V108.506H85.315V117.219H83.6295ZM94.2317 117.219V108.506H95.9172V117.219H94.2317ZM97.7052 117.219V108.506H98.8826L99.3907 110.192V117.219H97.7052ZM103.728 117.219L98.5604 110.526L98.8826 108.506L104.051 115.199L103.728 117.219ZM103.728 117.219L103.245 115.583V108.506H104.943V117.219H103.728Z" fill="white"/>
<path d="M74.0675 98.3283C72.8873 98.1012 71.6868 97.9439 70.5304 97.6358C63.8015 95.8442 58.8003 90.3549 57.9943 83.8746C57.8548 82.7564 57.8548 81.6192 57.848 80.4899C57.8276 77.7119 57.9467 74.9292 57.8157 72.156C57.6457 68.5838 61.0025 67.2766 63.6621 68.0549C64.4392 68.282 65.1738 68.641 66.0003 68.9666C66.0003 68.7728 66.002 68.5664 66.0003 68.3599C65.9764 64.8274 65.9237 61.295 65.9407 57.7642C65.9458 56.4586 65.9986 55.1371 66.2281 53.8537C66.5784 51.8826 68.6701 50.2578 70.8433 50.0878C73.3703 49.8909 75.6115 51.1186 76.4703 53.2533C76.7186 53.8696 76.841 54.5621 76.8597 55.2229C76.9107 57.086 76.8767 58.9507 76.8767 60.8948C78.414 60.1768 79.9478 59.9815 81.5327 60.5326C83.0955 61.0758 84.1464 62.1114 84.796 63.5854C86.5288 62.6626 88.3024 62.4815 90.1067 63.2709C91.8973 64.0555 92.8683 65.4358 93.2271 67.2623C94.5773 66.5968 95.9632 66.4348 97.3916 66.797C99.7128 67.3846 101.349 69.378 101.357 71.6398C101.371 75.0928 101.39 78.5458 101.352 81.9988C101.264 90.3629 94.4889 97.3197 85.5867 98.2251C85.4439 98.2394 85.3061 98.2934 85.165 98.3283C81.463 98.3283 77.7661 98.3283 74.0675 98.3283ZM68.7109 68.3932C68.7109 72.7008 68.7109 77.0067 68.7109 81.3142C68.7109 82.4753 68.2296 83.0916 67.3335 83.0804C66.456 83.0693 66.0122 82.4737 66.0003 81.3412C65.9747 78.9016 65.985 76.4587 65.8914 74.0207C65.8149 72.0511 64.4936 70.709 62.5108 70.4072C61.2269 70.2119 60.5518 70.7344 60.5501 71.9384C60.5484 75.1341 60.5297 78.3298 60.5603 81.5239C60.5688 82.4721 60.6488 83.4283 60.8137 84.3638C61.8714 90.3899 67.6821 95.3772 74.1831 95.6981C77.5314 95.8633 80.8933 95.7664 84.2501 95.7743C84.7161 95.7759 85.1854 95.7314 85.6462 95.6663C93.2951 94.5894 98.6058 88.8603 98.6432 81.6319C98.6602 78.3568 98.65 75.0832 98.6466 71.8081C98.6449 70.2579 97.526 69.135 95.9768 69.1111C94.426 69.0857 93.256 70.1674 93.205 71.7049C93.1761 72.5372 93.2118 73.3726 93.188 74.2049C93.1693 74.8339 92.7187 75.3135 92.0963 75.4358C91.513 75.5502 90.86 75.2611 90.6287 74.729C90.5216 74.4813 90.4927 74.1906 90.4927 73.919C90.4808 71.994 90.5012 70.0689 90.4757 68.1439C90.4689 67.6975 90.4009 67.2226 90.224 66.8113C89.7479 65.7074 88.4623 65.1181 87.192 65.3516C85.9948 65.5708 85.0579 66.5921 85.0443 67.7706C85.0204 69.675 85.0358 71.581 85.0358 73.487C85.0358 73.6855 85.0409 73.8841 85.0341 74.0826C85.0102 74.8879 84.4559 75.4517 83.6872 75.4581C82.9152 75.4644 82.3353 74.9101 82.3319 74.1017C82.32 71.284 82.3336 68.4647 82.3166 65.647C82.3149 65.2372 82.2656 64.8068 82.1262 64.4224C81.7096 63.2804 80.4529 62.6022 79.2081 62.7912C77.8341 62.9993 76.8869 63.9952 76.8801 65.3024C76.8648 68.101 76.875 70.8996 76.875 73.6982C76.875 74.8577 76.3904 75.4724 75.4925 75.4581C74.6167 75.4438 74.1661 74.8529 74.1644 73.7141C74.1644 67.7198 74.1661 61.727 74.161 55.7327C74.161 55.3769 74.1406 55.0148 74.0658 54.6685C73.8226 53.5615 72.736 52.6736 71.5728 52.5958C70.4233 52.5195 69.2754 53.2025 68.8979 54.2476C68.7653 54.6145 68.7228 55.0243 68.7211 55.4151C68.7075 59.7401 68.7109 64.0666 68.7109 68.3932Z" fill="white"/>
<path d="M72.6652 37.3447C73.7875 37.5401 74.9285 37.6687 76.0288 37.9435C84.0943 39.9559 89.5393 46.9715 89.0785 54.7638C89.0173 55.7867 88.7979 56.8064 88.5904 57.8166C88.4204 58.6473 87.7215 59.065 86.9188 58.8998C86.1536 58.7426 85.7404 58.0707 85.9512 57.2194C86.3237 55.72 86.4478 54.2127 86.3339 52.6736C85.8764 46.495 80.5181 41.0265 73.9712 40.0878C65.8597 38.9251 58.602 43.5185 56.8045 50.963C56.3063 53.0294 56.3777 55.0958 56.8895 57.1543C57.1106 58.0421 56.7348 58.7299 55.9577 58.8967C55.121 59.0777 54.4884 58.6409 54.2402 57.7134C51.8441 48.7425 58.1989 39.4524 67.9344 37.6957C68.6588 37.5655 69.3883 37.4607 70.1144 37.3447C70.9647 37.3447 71.8149 37.3447 72.6652 37.3447Z" fill="white"/>
<path d="M63.2988 54.1635C63.3209 54.4605 63.3566 54.7575 63.3617 55.0545C63.3736 55.7645 62.9009 56.295 62.1901 56.3903C61.4589 56.4872 60.8705 56.1219 60.7055 55.3849C60.3705 53.8951 60.5542 52.4211 61.0167 50.9789C62.5251 46.287 67.1352 43.4122 72.5326 43.7791C77.3144 44.1047 81.4653 47.7832 82.183 52.4021C82.3224 53.2947 82.2612 54.2207 82.217 55.1292C82.1813 55.8487 81.5351 56.3268 80.7936 56.2839C80.0573 56.241 79.4979 55.6931 79.5506 54.9624C79.6458 53.6409 79.5761 52.3528 79.0506 51.1012C77.5831 47.5958 73.592 45.6024 69.657 46.4252C65.8326 47.2225 63.0522 50.6041 63.2988 54.1635Z" fill="white"/>
<defs>
<linearGradient id="paint0_linear_801_4996" x1="128.956" y1="-4.89991" x2="39.7035" y2="154.547" gradientUnits="userSpaceOnUse">
<stop stop-color="#3862D0"/>
<stop offset="1" stop-color="#1BAEC1"/>
</linearGradient>
</defs>
</svg>
