<svg width="590" height="379" viewBox="0 0 590 379" fill="none" xmlns="http://www.w3.org/2000/svg">
<g clip-path="url(#clip0_69_8393)">
<path d="M26.2947 378.143C26.7941 378.638 124.364 345.413 124.364 345.413L86.8459 260.095L0 292.999L47.7711 320.196L26.2947 378.143Z" fill="#FF9700"/>
<path d="M72.0381 285.807V169.623C72.0381 169.623 206.626 145.25 303.578 146.677C400.531 148.104 500.392 163.886 500.392 163.886V275.412C500.392 275.412 196.49 248.506 72.0381 285.807Z" fill="#FF9700"/>
<path d="M71.3618 285.894L124.363 345.908V275.412C124.363 275.412 80.0288 280.682 71.3618 285.894Z" fill="#BA6E00"/>
<path d="M72.0394 169.623C72.4507 169.623 72.6564 195.655 72.4507 227.773C72.245 259.892 71.7456 285.924 71.3343 285.924C70.923 285.924 70.7173 259.892 70.923 227.773C71.1286 195.655 71.6281 169.652 72.0394 169.652V169.623Z" fill="#BA6E00"/>
<path d="M546.019 369.233C545.519 369.728 447.95 336.503 447.95 336.503L485.467 251.185L572.313 284.089L524.542 311.286L546.019 369.233Z" fill="#FF9700"/>
<path d="M500.95 276.984L447.95 336.998V271.597C465.607 272.179 483.293 273.984 500.95 276.984Z" fill="#BA6E00"/>
<path d="M500.423 163.886C500.834 163.886 501.304 189.19 501.451 220.435C501.598 251.679 501.392 276.984 500.952 276.984C500.54 276.984 500.07 251.679 499.923 220.435C499.777 189.219 499.982 163.886 500.423 163.886Z" fill="#BA6E00"/>
<path d="M103.71 207.448C100.126 207.885 96.5416 208.322 92.9573 208.759C92.7516 207.099 92.546 205.468 92.3403 203.809C101.536 202.644 110.761 201.596 119.957 200.605C120.133 202.265 120.31 203.896 120.486 205.556C116.902 205.934 113.317 206.342 109.733 206.75C110.761 215.602 111.79 224.454 112.818 233.306C110.849 233.539 108.881 233.772 106.883 234.005C105.826 225.153 104.739 216.301 103.681 207.478L103.71 207.448Z" fill="white"/>
<path d="M151.393 224.425C151.54 226.056 151.687 227.716 151.834 229.346C143.842 230.045 135.851 230.832 127.86 231.676C126.744 221.164 125.627 210.652 124.511 200.14C132.443 199.325 140.376 198.539 148.308 197.84C148.455 199.471 148.602 201.13 148.749 202.761C142.844 203.285 136.938 203.838 131.062 204.45C131.356 207.187 131.621 209.924 131.914 212.661C137.115 212.137 142.315 211.642 147.515 211.176C147.662 212.778 147.809 214.379 147.956 216.01C142.755 216.476 137.585 216.971 132.384 217.495C132.678 220.407 132.972 223.29 133.266 226.202C139.289 225.59 145.311 225.037 151.364 224.484L151.393 224.425Z" fill="white"/>
<path d="M161.176 227.948C158.826 227.453 156.916 226.695 155.477 225.647C156.035 224.075 156.593 222.502 157.151 220.901C158.561 221.803 160.236 222.502 162.204 222.997C164.173 223.492 166.112 223.667 168.051 223.521C170.431 223.347 172.194 222.823 173.31 221.978C174.426 221.134 174.955 220.115 174.838 218.862C174.779 217.96 174.397 217.232 173.692 216.708C172.987 216.184 172.105 215.776 171.077 215.514C170.049 215.252 168.639 214.99 166.846 214.698C164.349 214.32 162.293 213.912 160.735 213.475C159.178 213.039 157.768 212.252 156.593 211.117C155.388 209.981 154.713 208.38 154.507 206.312C154.36 204.565 154.713 202.934 155.565 201.42C156.417 199.906 157.798 198.654 159.707 197.635C161.617 196.645 163.997 196.004 166.846 195.8C168.844 195.655 170.813 195.742 172.781 196.091C174.75 196.441 176.454 196.994 177.923 197.81C177.394 199.382 176.865 200.954 176.336 202.498C174.838 201.799 173.31 201.275 171.723 200.983C170.137 200.663 168.609 200.576 167.17 200.692C164.79 200.867 163.027 201.42 161.94 202.294C160.853 203.167 160.354 204.245 160.471 205.555C160.559 206.458 160.941 207.157 161.646 207.681C162.351 208.205 163.233 208.583 164.29 208.846C165.348 209.108 166.758 209.37 168.55 209.661C170.989 210.01 173.016 210.447 174.603 210.913C176.189 211.379 177.57 212.194 178.745 213.301C179.92 214.436 180.596 216.009 180.743 218.076C180.86 219.823 180.508 221.425 179.627 222.91C178.775 224.395 177.394 225.618 175.513 226.608C173.633 227.598 171.283 228.21 168.492 228.413C166.024 228.617 163.615 228.443 161.264 227.948H161.176Z" fill="white"/>
<path d="M191.555 199.528C187.97 199.761 184.357 199.994 180.772 200.227C180.655 198.567 180.537 196.907 180.42 195.248C189.674 194.607 198.9 194.054 208.154 193.588C208.242 195.248 208.33 196.907 208.419 198.567C204.805 198.742 201.221 198.946 197.607 199.15C198.136 208.031 198.665 216.941 199.193 225.822C197.225 225.939 195.227 226.055 193.259 226.172C192.701 217.291 192.142 208.38 191.555 199.499V199.528Z" fill="white"/>
<path d="M232.921 222.591C230.248 221.28 228.132 219.417 226.546 217C224.959 214.583 224.078 211.817 223.96 208.73C223.813 205.614 224.46 202.79 225.87 200.256C227.28 197.723 229.307 195.714 231.893 194.2C234.508 192.685 237.475 191.899 240.765 191.783C243.439 191.695 245.907 192.074 248.14 192.918C250.373 193.763 252.282 195.044 253.839 196.733C252.576 197.956 251.283 199.179 250.02 200.402C247.611 197.985 244.673 196.82 241.206 196.937C238.973 196.995 236.975 197.548 235.242 198.567C233.509 199.587 232.187 200.955 231.246 202.673C230.306 204.391 229.895 206.342 229.983 208.468C230.071 210.623 230.63 212.515 231.687 214.175C232.745 215.835 234.155 217.087 235.918 217.99C237.71 218.892 239.678 219.3 241.882 219.213C245.29 219.096 248.11 217.786 250.373 215.223C251.695 216.388 253.017 217.582 254.339 218.747C252.87 220.494 251.078 221.863 248.904 222.824C246.759 223.784 244.35 224.309 241.735 224.396C238.503 224.483 235.565 223.901 232.892 222.591H232.921Z" fill="white"/>
<path d="M265.62 221.746C262.976 220.377 260.861 218.484 259.304 216.009C257.747 213.534 256.924 210.768 256.865 207.71C256.807 204.624 257.482 201.828 258.951 199.324C260.42 196.791 262.477 194.811 265.15 193.384C267.795 191.928 270.821 191.2 274.14 191.171C277.49 191.142 280.486 191.811 283.189 193.209C285.863 194.607 287.978 196.529 289.506 199.004C291.034 201.479 291.768 204.274 291.768 207.39C291.768 210.506 291.004 213.301 289.506 215.776C288.008 218.251 285.951 220.202 283.307 221.6C280.692 223.027 277.754 223.726 274.464 223.784C271.203 223.813 268.235 223.143 265.591 221.804L265.62 221.746ZM280.222 217.087C281.926 216.126 283.278 214.786 284.247 213.068C285.217 211.35 285.716 209.457 285.716 207.332C285.716 205.206 285.217 203.313 284.218 201.595C283.219 199.906 281.838 198.567 280.105 197.635C278.371 196.703 276.403 196.238 274.229 196.267C272.055 196.267 270.116 196.791 268.382 197.752C266.649 198.713 265.327 200.081 264.357 201.799C263.388 203.517 262.947 205.439 262.976 207.565C263.006 209.69 263.535 211.583 264.563 213.272C265.562 214.961 266.943 216.271 268.676 217.203C270.409 218.135 272.348 218.572 274.493 218.572C276.638 218.572 278.577 218.048 280.281 217.087H280.222Z" fill="white"/>
<path d="M327.524 223.638C327.671 216.62 327.847 209.632 327.994 202.614C324.292 208.322 320.62 214.058 317.006 219.794C316.124 219.794 315.243 219.765 314.332 219.765C310.895 214 307.428 208.263 303.932 202.527C303.873 209.428 303.814 216.358 303.756 223.26C301.875 223.26 299.966 223.23 298.085 223.23C298.144 212.66 298.203 202.09 298.262 191.52C299.936 191.52 301.611 191.52 303.256 191.549C307.516 198.596 311.747 205.643 315.889 212.719C320.208 205.788 324.586 198.858 328.993 191.957C330.667 191.986 332.313 192.044 333.987 192.073C333.693 202.643 333.429 213.214 333.135 223.755C331.255 223.696 329.375 223.667 327.494 223.609L327.524 223.638Z" fill="white"/>
<path d="M363.689 194.549C365.745 195.539 367.302 196.937 368.331 198.684C369.359 200.431 369.829 202.469 369.711 204.77C369.594 207.07 368.947 209.021 367.743 210.681C366.538 212.34 364.893 213.563 362.778 214.379C360.662 215.194 358.195 215.544 355.404 215.427C352.965 215.34 350.556 215.223 348.117 215.136C348 218.193 347.882 221.222 347.765 224.279C345.767 224.192 343.799 224.134 341.801 224.075C342.153 213.505 342.506 202.964 342.858 192.394C347.354 192.54 351.819 192.714 356.314 192.889C359.135 193.006 361.603 193.559 363.659 194.578L363.689 194.549ZM361.368 209.05C362.778 208.031 363.542 206.517 363.63 204.478C363.718 202.469 363.13 200.868 361.808 199.732C360.486 198.596 358.518 197.956 355.874 197.839C353.523 197.752 351.143 197.635 348.793 197.548C348.646 201.741 348.47 205.934 348.323 210.127C350.673 210.215 352.994 210.302 355.345 210.39C357.96 210.506 359.987 210.04 361.368 209.021V209.05Z" fill="white"/>
<path d="M376.323 193.821C378.35 193.937 380.378 194.054 382.405 194.17C381.876 203.051 381.347 211.962 380.818 220.843C386.43 221.163 392.012 221.513 397.623 221.921C397.506 223.58 397.388 225.24 397.271 226.9C389.72 226.376 382.14 225.91 374.59 225.502C375.177 214.961 375.765 204.391 376.323 193.85V193.821Z" fill="white"/>
<path d="M426.413 224.192C426.267 225.822 426.12 227.482 425.973 229.113C417.982 228.414 409.99 227.773 401.97 227.191C402.734 216.65 403.497 206.109 404.291 195.568C412.253 196.15 420.185 196.762 428.117 197.461C427.971 199.091 427.824 200.751 427.677 202.382C421.772 201.858 415.866 201.392 409.961 200.955C409.755 203.692 409.55 206.429 409.315 209.166C414.515 209.574 419.744 209.982 424.945 210.418C424.798 212.02 424.651 213.651 424.533 215.252C419.333 214.815 414.162 214.379 408.962 214C408.727 216.912 408.521 219.824 408.286 222.707C414.309 223.173 420.361 223.668 426.384 224.192H426.413Z" fill="white"/>
<path d="M441.663 203.721C438.079 203.372 434.465 203.051 430.881 202.731C431.028 201.071 431.175 199.411 431.322 197.781C440.547 198.596 449.772 199.499 458.997 200.489C458.821 202.149 458.645 203.779 458.468 205.439C454.884 205.06 451.3 204.682 447.686 204.333C446.775 213.185 445.894 222.066 444.983 230.918C443.015 230.714 441.017 230.54 439.048 230.336C439.9 221.484 440.782 212.602 441.634 203.75L441.663 203.721Z" fill="white"/>
<path d="M484.615 230.393C484.41 232.024 484.204 233.655 483.998 235.285C476.037 234.295 468.045 233.364 460.083 232.49C461.259 221.978 462.434 211.495 463.609 200.983C471.542 201.857 479.445 202.789 487.377 203.779C487.171 205.409 486.966 207.04 486.76 208.671C480.884 207.943 474.979 207.244 469.103 206.574C468.78 209.311 468.486 212.049 468.163 214.757C473.363 215.339 478.563 215.951 483.734 216.591C483.528 218.193 483.323 219.794 483.117 221.396C477.946 220.755 472.775 220.144 467.575 219.561C467.252 222.444 466.9 225.356 466.576 228.239C472.599 228.908 478.622 229.636 484.615 230.393Z" fill="white"/>
<path d="M560.62 174.456L568.317 183.396L589.999 174.456L583.653 165.051L560.62 174.456Z" fill="#FF9700"/>
<path d="M550.69 131.943C550.69 138.117 545.637 143.125 539.409 143.125C533.18 143.125 528.127 138.117 528.127 131.943C528.127 125.77 533.18 120.762 539.409 120.762C545.637 120.762 550.69 125.77 550.69 131.943Z" fill="#FF9700"/>
<path d="M297.966 298.706C297.966 301.793 295.44 304.297 292.325 304.297C289.211 304.297 286.685 301.793 286.685 298.706C286.685 295.619 289.211 293.115 292.325 293.115C295.44 293.115 297.966 295.619 297.966 298.706Z" fill="#FF9700"/>
<path d="M35.1662 214.67C35.1662 217.028 33.2566 218.921 30.8768 218.921C28.4971 218.921 26.5874 217.028 26.5874 214.67C26.5874 212.311 28.4971 210.418 30.8768 210.418C33.2566 210.418 35.1662 212.311 35.1662 214.67Z" fill="#FF9700"/>
<path d="M19.2427 167.875L31.8759 168.632L37.8693 144.027L26.0881 144.493L19.2427 167.875Z" fill="#FF9700"/>
<path d="M414.104 364.516L418.364 376.338L443.572 372.174L438.489 361.575L414.104 364.516Z" fill="#FF9700"/>
<path d="M159.148 296.29L151.363 306.219L168.432 325.03L174.72 315.129L159.148 296.29Z" fill="#FF9700"/>
<path d="M128.947 63.7168L158.796 93.884L200.809 78.1307L202.454 88.4679L184.268 125.391L201.044 152.937L199.634 161.149L159.002 154.364L134.969 180.513L129.328 176.261L124.363 143.037L86.4637 123.469L84.7891 115.898L122.953 105.532L128.947 63.7168Z" fill="#FFC14D"/>
<g opacity="0.3">
<path d="M128.947 63.7168L158.796 93.884L200.809 78.1307L202.454 88.4679L184.268 125.391L201.044 152.937L199.634 161.149L159.002 154.364L134.969 180.513L129.328 176.261L124.363 143.037L86.4637 123.469L84.7891 115.898L122.953 105.532L128.947 63.7168Z" fill="black"/>
</g>
<path d="M128.947 55.2434L158.796 85.4106L200.809 78.1309L181.066 115.607L201.044 152.937L159.002 145.92L129.328 176.262L123.071 134.476L84.7891 115.898L122.953 97.0873L128.947 55.2434Z" fill="#FFC14D"/>
<path d="M438.196 63.7166L408.346 93.8837L366.363 78.1304L364.688 88.4676L382.874 125.39L366.128 152.937L367.508 161.148L408.14 154.364L432.173 180.512L437.814 176.261L442.779 143.036L480.678 123.469L482.353 115.898L444.189 105.531L438.196 63.7166Z" fill="#FFC14D"/>
<g opacity="0.3">
<path d="M438.196 63.7166L408.346 93.8837L366.363 78.1304L364.688 88.4676L382.874 125.39L366.128 152.937L367.508 161.148L408.14 154.364L432.173 180.512L437.814 176.261L442.779 143.036L480.678 123.469L482.353 115.898L444.189 105.531L438.196 63.7166Z" fill="black"/>
</g>
<path d="M438.195 55.2437L408.346 85.4108L366.362 78.1311L386.076 115.607L366.127 152.938L408.14 145.92L437.814 176.262L444.071 134.476L482.353 115.898L444.189 97.0875L438.195 55.2437Z" fill="#FFC14D"/>
<path d="M282.601 10.8079L307.427 58.8831L364.688 55.5345L362.749 68.7545L326.377 106.929L336.248 146.88L331.371 156.373L284.393 132.787L245.054 155.587L239.795 148.278L246.494 105.852L207.771 67.6771L208.653 57.8057L259.186 59.582L282.601 10.8079Z" fill="#FFC14D"/>
<g opacity="0.3">
<path d="M282.601 10.8079L307.427 58.8831L364.688 55.5345L362.749 68.7545L326.377 106.929L336.248 146.88L331.371 156.373L284.393 132.787L245.054 155.587L239.795 148.278L246.494 105.852L207.771 67.6771L208.653 57.8057L259.186 59.582L282.601 10.8079Z" fill="black"/>
</g>
<path d="M285.833 0.5L310.659 48.5753L364.688 55.5347L326.23 93.7969L336.249 146.881L287.655 122.45L239.796 148.278L248.228 94.9326L208.653 57.806L262.447 49.2741L285.833 0.5Z" fill="#FFC14D"/>
</g>
<defs>
<clipPath id="clip0_69_8393">
<rect width="590" height="378" fill="white" transform="translate(0 0.5)"/>
</clipPath>
</defs>
</svg>
