<svg width="51" height="54" viewBox="0 0 51 54" fill="none" xmlns="http://www.w3.org/2000/svg">
<path d="M21.6666 8.86666H12.0667V47.2667H21.6666V8.86666Z" fill="#916658"/>
<path d="M14.2 8.86666H21.6666V47.2667H14.2V8.86666Z" fill="#A37765"/>
<path d="M12.6 42.0066V8.1C12.6 7.38392 12.3155 6.69716 11.8092 6.19081C11.3028 5.68446 10.6161 5.4 9.9 5.4H2.7C1.98392 5.4 1.29716 5.68446 0.790812 6.19081C0.284464 6.69716 0 7.38392 0 8.1V51.3C0 52.0161 0.284464 52.7028 0.790812 53.2092C1.29716 53.7155 1.98392 54 2.7 54H9.9C10.2926 54.0004 10.6806 53.915 11.0368 53.7498C11.393 53.5845 11.7087 53.3434 11.9619 53.0433L12.6 42.0066Z" fill="#0059BE"/>
<path d="M11.7 52.2C11.8048 52.1947 11.9091 52.183 12.0123 52.1649L12.6 42.0066V8.1C12.6 7.38391 12.3156 6.69716 11.8092 6.19081C11.3029 5.68446 10.6161 5.4 9.90005 5.4H2.70005C2.43727 5.40389 2.17649 5.44634 1.92605 5.526C1.84639 5.77644 1.80394 6.03722 1.80005 6.3V49.5C1.80005 50.2161 2.08451 50.9028 2.59086 51.4092C3.09721 51.9155 3.78396 52.2 4.50005 52.2H11.7Z" fill="#006BDB"/>
<path d="M0 43.2H12.6V48.6H0V43.2Z" fill="#E6E6E6"/>
<path d="M1.80005 43.2H12.6V48.6H1.80005V43.2Z" fill="#F2F2F2"/>
<path d="M0 10.8H12.6V16.2H0V10.8Z" fill="#E6E6E6"/>
<path d="M6.3001 32.4C7.79127 32.4 9.0001 31.1912 9.0001 29.7C9.0001 28.2088 7.79127 27 6.3001 27C4.80893 27 3.6001 28.2088 3.6001 29.7C3.6001 31.1912 4.80893 32.4 6.3001 32.4Z" fill="#F2F2F2"/>
<path d="M36.0001 41.4V2.7C36.0001 1.98392 35.7156 1.29716 35.2093 0.790812C34.7029 0.284464 34.0162 0 33.3001 0H24.3001C23.584 0 22.8973 0.284464 22.3909 0.790812C21.8846 1.29716 21.6001 1.98392 21.6001 2.7V41.4H36.0001Z" fill="#E73844"/>
<path d="M33.3 0H27C26.284 0 25.5972 0.284464 25.0909 0.790812C24.5845 1.29716 24.3 1.98392 24.3 2.7V41.4H36V2.7C36 1.98392 35.7156 1.29716 35.2092 0.790812C34.7029 0.284464 34.0161 0 33.3 0Z" fill="#FF4D55"/>
<path d="M32.4 41.4V12.6H25.2V41.4" fill="#F2F2F2"/>
<path d="M28.8001 9C30.2913 9 31.5001 7.79117 31.5001 6.3C31.5001 4.80883 30.2913 3.6 28.8001 3.6C27.3089 3.6 26.1001 4.80883 26.1001 6.3C26.1001 7.79117 27.3089 9 28.8001 9Z" fill="#F2F2F2"/>
<path d="M46.8 41.4V11.7C46.8 10.9839 46.5155 10.2972 46.0092 9.79081C45.5028 9.28446 44.8161 9 44.1 9H38.7C37.9839 9 37.2972 9.28446 36.7908 9.79081C36.2845 10.2972 36 10.9839 36 11.7V41.4H46.8Z" fill="#EEBD39"/>
<path d="M44.1 9H41.4C40.6839 9 39.9971 9.28446 39.4908 9.79081C38.9844 10.2972 38.7 10.9839 38.7 11.7V41.4H46.8V11.7C46.8 10.9839 46.5155 10.2972 46.0091 9.79081C45.5028 9.28446 44.816 9 44.1 9Z" fill="#FBCF43"/>
<path d="M36 14.4H46.8V18H36V14.4Z" fill="#E6E6E6"/>
<path d="M41.4001 26.1C42.3942 26.1 43.2001 25.2941 43.2001 24.3C43.2001 23.3059 42.3942 22.5 41.4001 22.5C40.406 22.5 39.6001 23.3059 39.6001 24.3C39.6001 25.2941 40.406 26.1 41.4001 26.1Z" fill="#F2F2F2"/>
<path d="M9.2666 45H49.7666V50.4H9.2666V45Z" fill="#F2F2F2"/>
<path d="M9.2666 45H14.6666V50.4H9.2666V45Z" fill="#E6E6E6"/>
<path d="M12.6001 23.4H21.6001V27H12.6001V23.4Z" fill="#5B5B5B"/>
<path d="M1.80005 10.8H12.6V16.2H1.80005V10.8Z" fill="#F2F2F2"/>
<path d="M38.7 14.4H46.8V18H38.7V14.4Z" fill="#F2F2F2"/>
<path d="M14.3999 23.4H21.5999V27H14.3999V23.4Z" fill="#686868"/>
<path d="M50.6667 54V50.4H11.9667C11.2507 50.4 10.5639 50.1155 10.0576 49.6092C9.55121 49.1028 9.26675 48.4161 9.26675 47.7C9.26675 46.9839 9.55121 46.2972 10.0576 45.7908C10.5639 45.2845 11.2507 45 11.9667 45H50.6667V41.4H11.9667C10.2959 41.4 8.69345 42.0637 7.51198 43.2452C6.3305 44.4267 5.66675 46.0291 5.66675 47.7C5.66675 49.3709 6.3305 50.9733 7.51198 52.1548C8.69345 53.3362 10.2959 54 11.9667 54H50.6667Z" fill="#8DBF00"/>
<path d="M9.26673 47.7C9.26673 46.9839 9.5512 46.2972 10.0575 45.7908C10.5639 45.2845 11.2506 45 11.9667 45H50.6667V41.4H11.9667C10.736 41.3988 9.53211 41.76 8.50533 42.4386C7.8808 43.3884 7.52486 44.4894 7.47524 45.625C7.42563 46.7606 7.68419 47.8885 8.22352 48.8891C8.76285 49.8898 9.56285 50.7258 10.5387 51.3087C11.5146 51.8916 12.63 52.1995 13.7667 52.2H50.6667V50.4H11.9667C11.2506 50.4 10.5639 50.1155 10.0575 49.6092C9.5512 49.1028 9.26673 48.4161 9.26673 47.7Z" fill="#A6D305"/>
</svg>
