<svg width="23" height="22" viewBox="0 0 23 22" fill="none" xmlns="http://www.w3.org/2000/svg">
<path d="M15.5682 11.5427C15.9116 11.243 15.9116 10.757 15.5682 10.4573L12.6376 7.8992C12.2942 7.59949 11.7375 7.59949 11.3942 7.8992C11.0508 8.1989 11.0508 8.68482 11.3942 8.98452L12.824 10.2326H4.39605C3.91047 10.2326 3.51684 10.5762 3.51684 11C3.51684 11.4238 3.91047 11.7674 4.39605 11.7674H12.824L11.3942 13.0155C11.0508 13.3152 11.0508 13.8011 11.3942 14.1008C11.7375 14.4005 12.2942 14.4005 12.6376 14.1008L15.5682 11.5427Z" fill="white"/>
<path fill-rule="evenodd" clip-rule="evenodd" d="M13.7099 5.42345e-07H15.0109C16.6141 -2.01336e-05 17.9063 -3.68003e-05 18.9226 0.119234C19.9778 0.243065 20.8662 0.507979 21.5719 1.12389C22.2775 1.73981 22.581 2.51531 22.7228 3.43635C22.8595 4.32348 22.8595 5.45144 22.8594 6.85083V15.1492C22.8595 16.5486 22.8595 17.6765 22.7228 18.5636C22.581 19.4847 22.2775 20.2602 21.5719 20.8761C20.8662 21.492 19.9778 21.7569 18.9226 21.8808C17.9063 22 16.6141 22 15.0109 22H13.71C12.1068 22 10.8145 22 9.7982 21.8808C8.74302 21.7569 7.85458 21.492 7.14897 20.8761C6.68028 20.467 6.38901 19.9875 6.20467 19.4417C5.08952 19.4404 4.16043 19.4297 3.40768 19.3414C2.51212 19.2363 1.73567 19.0088 1.1159 18.4678C0.496122 17.9268 0.235546 17.2491 0.115141 16.4674C-4.88065e-05 15.7195 -2.64829e-05 14.7723 8.37913e-07 13.6131V8.38692C-2.64829e-05 7.22776 -4.88065e-05 6.28048 0.115141 5.53263C0.235546 4.75091 0.496122 4.07317 1.1159 3.53218C1.73567 2.99119 2.51212 2.76374 3.40768 2.65864C4.16043 2.5703 5.08952 2.55959 6.20467 2.55831C6.38901 2.01251 6.68028 1.533 7.14897 1.12389C7.85458 0.507979 8.74302 0.243065 9.7982 0.119234C10.8145 -3.68003e-05 12.1068 -2.01336e-05 13.7099 5.42345e-07ZM5.86139 15.1492C5.86138 16.2235 5.86136 17.1378 5.92318 17.906C4.94501 17.9027 4.21783 17.8877 3.64199 17.8202C2.94141 17.7379 2.59789 17.5908 2.35929 17.3825C2.12068 17.1742 1.95207 16.8744 1.85788 16.2629C1.76029 15.6293 1.75842 14.7858 1.75842 13.5581V8.44186C1.75842 7.21425 1.76029 6.37074 1.85788 5.73715C1.95207 5.12563 2.12068 4.82578 2.35929 4.61751C2.59789 4.40923 2.94141 4.26205 3.64199 4.17984C4.21783 4.11226 4.94501 4.09727 5.92318 4.09396C5.86136 4.86217 5.86138 5.77651 5.86139 6.85082L5.8614 6.90698C5.8614 7.33082 6.25503 7.67442 6.7406 7.67442C7.22618 7.67442 7.61981 7.33082 7.61981 6.90698C7.61981 5.43818 7.62168 4.41378 7.74073 3.64087C7.85638 2.89003 8.06791 2.49242 8.39236 2.20922C8.7168 1.92602 9.17231 1.74138 10.0325 1.64043C10.918 1.53651 12.0916 1.53488 13.7743 1.53488H14.9466C16.6293 1.53488 17.8028 1.53651 18.6883 1.64043C19.5485 1.74138 20.004 1.92602 20.3285 2.20922C20.6529 2.49242 20.8645 2.89003 20.9801 3.64087C21.0991 4.41378 21.101 5.43818 21.101 6.90698V15.093C21.101 16.5618 21.0991 17.5862 20.9801 18.3591C20.8645 19.11 20.6529 19.5076 20.3285 19.7908C20.004 20.074 19.5485 20.2586 18.6883 20.3596C17.8028 20.4635 16.6293 20.4651 14.9466 20.4651H13.7743C12.0916 20.4651 10.918 20.4635 10.0325 20.3596C9.17231 20.2586 8.7168 20.074 8.39236 19.7908C8.06791 19.5076 7.85638 19.11 7.74073 18.3591C7.62168 17.5862 7.61981 16.5618 7.61981 15.093C7.61981 14.6692 7.22618 14.3256 6.7406 14.3256C6.25503 14.3256 5.8614 14.6692 5.8614 15.093L5.86139 15.1492Z" fill="white"/>
</svg>
