<svg width="24" height="23" viewBox="0 0 24 23" fill="none" xmlns="http://www.w3.org/2000/svg">
<path fill-rule="evenodd" clip-rule="evenodd" d="M23.4543 10.2427C23.4512 10.2808 23.4481 10.3193 23.4781 10.3527V10.5246C23.4445 10.5675 23.4445 10.6105 23.4781 10.6535V10.8254C23.4415 10.9256 23.4415 11.0259 23.4781 11.1262V11.384C23.4415 11.4843 23.4415 11.5845 23.4781 11.6848V11.8997C23.4445 11.9426 23.4445 11.9856 23.4781 12.0286V12.2005C23.4437 12.3747 23.4356 12.551 23.4276 12.7272C23.4214 12.8633 23.4152 12.9993 23.3969 13.1344C23.2771 14.0133 22.9972 14.8498 22.6323 15.6635C21.9839 17.1096 21.0445 18.3673 19.8173 19.4301C18.719 20.3818 17.468 21.1106 16.066 21.6074C15.3082 21.8761 14.5351 22.0921 13.7277 22.1826C13.563 22.201 13.3974 22.2077 13.2318 22.2145C13.0416 22.2222 12.8513 22.2299 12.6625 22.2554H12.5708C12.5484 22.233 12.5206 22.2335 12.4927 22.2339C12.4841 22.234 12.4754 22.2341 12.4669 22.2336H12.3832C12.3691 22.2354 12.3546 22.2347 12.3401 22.234C12.3085 22.2325 12.2768 22.231 12.2499 22.2554H11.2415C11.2139 22.2302 11.1811 22.232 11.1484 22.2338C11.1334 22.2346 11.1184 22.2354 11.104 22.2336C11.0896 22.2354 11.0746 22.2346 11.0596 22.2338C11.0269 22.232 10.9941 22.2302 10.9665 22.2554H10.7373C10.5518 22.223 10.3639 22.2155 10.1759 22.208C10.0309 22.2022 9.88578 22.1964 9.74174 22.1792C8.80422 22.0663 7.91192 21.8039 7.04408 21.4618C5.49418 20.851 4.1478 19.9647 3.01104 18.8073C1.99774 17.776 1.22707 16.598 0.696582 15.2853C0.415449 14.5886 0.191765 13.877 0.0939795 13.1344C0.076383 13.0009 0.0701856 12.8668 0.0639896 12.7326C0.0557674 12.5546 0.0475478 12.3766 0.0126953 12.2005V11.8567C0.0487537 11.7708 0.0487537 11.6848 0.0126953 11.5989V10.9113C0.0487537 10.8254 0.0487537 10.7394 0.0126953 10.6535V10.3097C0.0471883 10.1354 0.0552057 9.95928 0.0632264 9.78308C0.069417 9.64709 0.0756097 9.51105 0.0939795 9.37577C0.207044 8.54039 0.464953 7.74169 0.803535 6.96532C1.28757 5.85779 1.94762 4.85224 2.78491 3.94639C4.19424 2.42174 5.93116 1.36405 7.96204 0.720043C8.84089 0.441011 9.74357 0.2823 10.6744 0.276571C10.6802 0.276571 10.6861 0.276725 10.692 0.276881C10.7239 0.277716 10.7563 0.278564 10.7825 0.255371H10.92C10.9659 0.286884 11.0117 0.286884 11.0576 0.255371H11.2867C11.3937 0.289749 11.5007 0.289749 11.6076 0.255371H11.8826C11.9896 0.289749 12.0965 0.289749 12.2035 0.255371H12.4327C12.4632 0.281727 12.4938 0.281727 12.5243 0.255371H12.6619C12.8539 0.281926 13.0474 0.289944 13.2409 0.297963C13.4106 0.304996 13.5803 0.31203 13.7491 0.331575C14.6646 0.437 15.5367 0.691968 16.3844 1.02142C17.542 1.4712 18.5925 2.08484 19.5417 2.85432C21.1136 4.12916 22.221 5.69736 22.9159 7.52568C23.2453 8.392 23.4482 9.28353 23.4561 10.2083C23.4561 10.2196 23.4552 10.2311 23.4543 10.2427ZM18.4941 18.0928C20.3869 16.441 21.4081 14.3869 21.6098 11.9724C21.7388 10.4323 21.5212 8.93345 20.8306 7.53198C19.046 3.908 15.9701 2.09687 11.7402 1.97884C10.9696 1.95764 10.2013 2.03499 9.45327 2.23209C9.43874 2.23319 9.42428 2.23361 9.40958 2.23418C9.3785 2.23539 9.34749 2.2366 9.31845 2.24282C8.47933 2.44049 7.67565 2.72525 6.91659 3.11716C3.24597 5.01423 1.33732 8.77114 1.9607 12.6432C2.46736 15.7922 4.27272 18.1138 7.30346 19.5749C7.97898 19.9004 8.69019 20.1476 9.44252 20.2748C9.4463 20.2759 9.45009 20.277 9.45388 20.2781C9.47078 20.283 9.48755 20.2885 9.50432 20.294C9.53787 20.3049 9.57142 20.3159 9.60606 20.3228C10.7434 20.5491 11.8881 20.5944 13.0426 20.4557C15.126 20.2053 16.9565 19.4341 18.4941 18.0928Z" fill="white"/>
<path d="M9.45327 2.23209C8.86778 2.5392 8.29775 2.86632 7.76787 3.25479C6.61645 4.09819 5.70215 5.12666 4.99993 6.32529C4.36494 7.40934 3.97808 8.56901 3.78617 9.7877C3.73422 10.1189 3.71344 10.4541 3.68227 10.7881C3.63588 11.2705 3.6894 11.8427 3.74095 12.3385C3.84729 13.3676 4.11497 14.3639 4.55134 15.3156C4.99993 16.2937 5.59215 17.1869 6.34387 17.9891C7.21416 18.9184 8.23602 19.6621 9.4015 20.2356C9.42106 20.2454 9.43633 20.2626 9.45406 20.2769C8.69744 20.1503 7.98245 19.9021 7.30346 19.5749C4.27272 18.1138 2.46736 15.7922 1.9607 12.6432C1.33732 8.77114 3.24597 5.01423 6.91659 3.11716C7.67565 2.72525 8.47933 2.44049 9.31845 2.24282C9.36123 2.23365 9.40804 2.23553 9.45327 2.23209Z" fill="white" fill-opacity="0.05"/>
<path d="M10.8289 9.24385C10.8289 8.7998 10.8277 8.35633 10.8289 7.91229C10.8301 7.3462 11.1987 6.96174 11.7402 6.95888C12.2829 6.95601 12.6606 7.34047 12.6618 7.90197C12.663 8.75397 12.6667 9.60596 12.6599 10.458C12.6575 10.7559 12.7638 10.9965 12.99 11.2057C13.7014 11.8646 14.4097 12.5269 15.1119 13.195C15.5648 13.6259 15.4963 14.2578 14.9775 14.5615C14.6285 14.7655 14.1805 14.7414 13.8762 14.4612C13.0914 13.7393 12.3098 13.0134 11.5482 12.2708C11.0514 11.7861 10.8289 11.1839 10.8289 10.5107C10.8289 10.0884 10.8289 9.66612 10.8289 9.24385Z" fill="white"/>
<path d="M11.7394 5.23923C11.2352 5.23637 10.827 4.84847 10.8294 4.37463C10.8325 3.9008 11.245 3.5192 11.751 3.52149C12.2559 3.52436 12.6641 3.91168 12.6611 4.38552C12.6586 4.85821 12.2443 5.24152 11.7394 5.23923Z" fill="white"/>
<path d="M3.71611 11.514C3.66966 11.3416 3.66966 11.1685 3.71611 10.9961C3.86584 10.6385 4.13598 10.4202 4.55156 10.3996C4.91582 10.3818 5.2 10.532 5.38641 10.827C5.63454 11.2201 5.50253 11.726 5.09305 11.9747C4.68235 12.2239 4.13964 12.1305 3.85607 11.757C3.79984 11.6825 3.76256 11.5954 3.71611 11.514Z" fill="white"/>
<path d="M19.8107 11.2595C19.8082 11.7322 19.3945 12.1155 18.889 12.1133C18.3848 12.111 17.976 11.7231 17.9784 11.2492C17.9809 10.7754 18.3934 10.3932 18.8994 10.3955C19.4049 10.3984 19.8131 10.7857 19.8107 11.2595Z" fill="white"/>
<path d="M11.751 18.9884C11.2462 18.9912 10.8319 18.6079 10.8294 18.1347C10.827 17.6597 11.234 17.2729 11.7394 17.2706C12.2455 17.2683 12.6586 17.6505 12.6611 18.1238C12.6641 18.5976 12.2553 18.9855 11.751 18.9884Z" fill="white"/>
<path d="M5.64631 6.38878C5.64814 5.9115 6.05395 5.53564 6.56427 5.53736C7.07031 5.53908 7.48039 5.9264 7.47734 6.39795C7.47428 6.86663 7.05319 7.25739 6.55388 7.25453C6.05151 7.25166 5.64447 6.86377 5.64631 6.38878Z" fill="white"/>
<path d="M6.52907 16.9718C6.02547 16.9603 5.63494 16.569 5.64655 16.0871C5.65817 15.6179 6.08903 15.238 6.59018 15.2552C7.09194 15.273 7.49653 15.678 7.47759 16.1439C7.45803 16.6194 7.04122 16.9833 6.52907 16.9718Z" fill="white"/>
<path d="M16.9361 5.53736C17.4445 5.53966 17.8455 5.92067 17.843 6.39967C17.8406 6.87351 17.4268 7.25854 16.9232 7.25453C16.4233 7.25109 16.0077 6.85518 16.0114 6.38764C16.0157 5.9138 16.4276 5.53507 16.9361 5.53736Z" fill="white"/>
<path d="M16.9373 16.9722C16.43 16.9751 16.0163 16.5958 16.0114 16.1231C16.0065 15.655 16.4215 15.2596 16.9214 15.255C17.425 15.2505 17.8394 15.6343 17.8424 16.1082C17.8455 16.5872 17.4458 16.9693 16.9373 16.9722Z" fill="white"/>
</svg>
