<svg width="34" height="34" viewBox="0 0 34 34" fill="none" xmlns="http://www.w3.org/2000/svg">
<g id="Disscussion forum">
<g id="Group">
<g id="Group_2">
<path id="Vector" fill-rule="evenodd" clip-rule="evenodd" d="M19.6013 2.71484C15.4126 2.71484 12.0171 5.2685 12.0171 8.41868C12.0171 11.5689 15.4126 14.1225 19.6013 14.1225C19.6279 14.1225 19.6544 14.122 19.681 14.1217C20.8224 15.0074 22.2518 15.5176 23.7715 15.5069C23.2889 14.9558 22.8998 14.3293 22.6198 13.6524C25.3063 12.7749 27.1854 10.762 27.1854 8.41868C27.1854 5.26856 23.7899 2.71484 19.6013 2.71484Z" fill="#2BB0C1" fill-opacity="0.5"/>
<path id="Vector_2" fill-rule="evenodd" clip-rule="evenodd" d="M14.3986 2.71484C18.5872 2.71484 21.9828 5.2685 21.9828 8.41868C21.9828 11.5689 18.5872 14.1225 14.3986 14.1225C14.3719 14.1225 14.3455 14.122 14.3189 14.1217C13.1774 15.0074 11.7481 15.5176 10.2283 15.5069C10.7109 14.9558 11.1 14.3293 11.3801 13.6524C8.69348 12.7749 6.81445 10.762 6.81445 8.41868C6.81445 5.26856 10.21 2.71484 14.3986 2.71484H14.3986Z" fill="#5ED8E8" fill-opacity="0.5"/>
<path id="Vector_3" fill-rule="evenodd" clip-rule="evenodd" d="M14.399 2.71484C18.5877 2.71484 21.9832 5.2685 21.9832 8.41868C21.9832 11.5689 18.5877 14.1225 14.399 14.1225C14.3724 14.1225 14.3459 14.122 14.3194 14.1217C13.5007 14.7573 12.5438 15.1911 11.5262 15.3877C11.9829 14.8493 12.4051 14.1998 12.6584 13.4709C9.97181 12.5934 8.09277 10.5804 8.09277 8.23712C8.09277 5.62065 10.4354 3.41589 13.6291 2.74393C13.8823 2.72474 14.1391 2.71484 14.399 2.71484Z" fill="#5ED8E8" fill-opacity="0.5"/>
<path id="Vector_4" fill-rule="evenodd" clip-rule="evenodd" d="M14.7828 27.9821C14.5594 21.8549 0.887586 21.8549 0.664062 27.9821V31.2838H14.7828V27.9821Z" fill="#5ED8E8" fill-opacity="0.5"/>
<path id="Vector_5" fill-rule="evenodd" clip-rule="evenodd" d="M14.7827 27.9826C14.6821 25.2246 11.8565 23.7087 8.75929 23.4336C5.66203 23.7087 2.83645 25.2246 2.73584 27.9826V31.2843H14.7827V27.9826Z" fill="#5ED8E8" fill-opacity="0.5"/>
</g>
<path id="Vector_6" d="M10.3599 22.8053C11.8175 21.3477 11.8175 18.9844 10.3599 17.5267C8.9022 16.069 6.53887 16.069 5.08121 17.5267C3.62356 18.9844 3.62356 21.3477 5.08122 22.8053C6.53887 24.263 8.9022 24.263 10.3599 22.8053Z" fill="#2BB0C1" fill-opacity="0.5"/>
<path id="Vector_7" fill-rule="evenodd" clip-rule="evenodd" d="M33.3361 27.9821C33.1126 21.8549 19.4408 21.8549 19.2173 27.9821V31.2838H33.3361V27.9821Z" fill="#5ED8E8" fill-opacity="0.5"/>
<path id="Vector_8" fill-rule="evenodd" clip-rule="evenodd" d="M10.5889 11.1342C10.4832 11.1342 10.3819 11.0922 10.3071 11.0175C10.2324 10.9428 10.1904 10.8414 10.1904 10.7358C10.1904 10.6301 10.2324 10.5287 10.3071 10.454C10.3819 10.3793 10.4832 10.3373 10.5889 10.3373H18.209C18.3147 10.3373 18.416 10.3793 18.4907 10.454C18.5654 10.5287 18.6074 10.6301 18.6074 10.7358C18.6074 10.8414 18.5654 10.9428 18.4907 11.0175C18.416 11.0922 18.3147 11.1342 18.209 11.1342H10.5889ZM10.5889 6.49805C10.4832 6.49805 10.3819 6.45607 10.3071 6.38135C10.2324 6.30663 10.1904 6.20528 10.1904 6.09961C10.1904 5.99394 10.2324 5.89259 10.3071 5.81787C10.3819 5.74315 10.4832 5.70117 10.5889 5.70117H18.209C18.3147 5.70117 18.416 5.74315 18.4907 5.81787C18.5654 5.89259 18.6074 5.99394 18.6074 6.09961C18.6074 6.20528 18.5654 6.30663 18.4907 6.38135C18.416 6.45607 18.3147 6.49805 18.209 6.49805H10.5889ZM10.5889 8.81616C10.4832 8.81616 10.3819 8.77418 10.3071 8.69946C10.2324 8.62474 10.1904 8.52339 10.1904 8.41772C10.1904 8.31205 10.2324 8.2107 10.3071 8.13598C10.3819 8.06126 10.4832 8.01928 10.5889 8.01928H18.209C18.3147 8.01928 18.416 8.06126 18.4907 8.13598C18.5654 8.2107 18.6074 8.31205 18.6074 8.41772C18.6074 8.52339 18.5654 8.62474 18.4907 8.69946C18.416 8.77418 18.3147 8.81616 18.209 8.81616H10.5889Z" fill="#2BB0C1" fill-opacity="0.5"/>
<path id="Vector_9" fill-rule="evenodd" clip-rule="evenodd" d="M33.336 27.9826C33.2353 25.2246 30.4098 23.7087 27.3125 23.4336C24.2153 23.7087 21.3897 25.2246 21.2891 27.9826V31.2843H33.336V27.9826Z" fill="#5ED8E8" fill-opacity="0.5"/>
<path id="Vector_10" d="M29.9822 20.4444C30.1511 18.3899 28.6225 16.5875 26.568 16.4186C24.5135 16.2496 22.7111 17.7782 22.5422 19.8327C22.3733 21.8872 23.9018 23.6897 25.9563 23.8586C28.0108 24.0275 29.8133 22.4989 29.9822 20.4444Z" fill="#2BB0C1" fill-opacity="0.5"/>
</g>
</g>
</svg>
