<svg width="34" height="34" viewBox="0 0 34 36" fill="none" xmlns="http://www.w3.org/2000/svg">
<path opacity="0.8" d="M33.9904 10.6304C33.9904 10.6304 33.9904 10.6104 33.9804 10.6104H17.1904V35.8804C17.2904 35.8804 17.3804 35.8204 17.4404 35.7404C17.7504 35.2104 18.3304 34.8504 18.9904 34.8504H33.9804C33.9804 34.8504 33.9904 34.8504 33.9904 34.8404V10.6304Z" fill="#2F9AA8"/>
<path d="M31.4804 9.24023H18.2304C17.6604 9.24023 17.1904 9.70023 17.1904 10.2802V32.6202H17.3604C17.5504 32.3402 17.8704 32.1502 18.2304 32.1502H31.4804V9.24023Z" fill="#DBF1F4"/>
<path opacity="0.8" d="M17.19 35.8801V10.6201H0.41C0.3 10.6201 0.19 10.6601 0.12 10.7401C0.04 10.8201 0 10.9201 0 11.0301V34.4301C0 34.5401 0.04 34.6501 0.12 34.7201C0.2 34.8001 0.3 34.8401 0.41 34.8401H15.39C16.05 34.8401 16.63 35.2001 16.94 35.7301C16.99 35.8201 17.08 35.8701 17.19 35.8701V35.8801Z" fill="#2F9AA8"/>
<path d="M17.0203 32.6202H17.1903V10.2802C17.1903 9.71023 16.7303 9.24023 16.1503 9.24023H2.76027C2.63027 9.24023 2.51027 9.29023 2.42027 9.38023C2.33027 9.47023 2.28027 9.59023 2.28027 9.72023V31.6602C2.28027 31.7902 2.33027 31.9102 2.42027 32.0002C2.51027 32.0902 2.63027 32.1402 2.76027 32.1402H16.1503C16.5103 32.1402 16.8303 32.3302 17.0203 32.6102V32.6202Z" fill="#DBF1F4"/>
<g opacity="0.3">
<path d="M14.0703 13.1302H5.39027C5.31027 13.1302 5.23027 13.1102 5.16027 13.0802C5.09027 13.0502 5.02027 13.0102 4.96027 12.9502C4.90027 12.8902 4.86027 12.8302 4.83027 12.7502C4.80027 12.6802 4.78027 12.6002 4.78027 12.5202C4.78027 12.3602 4.84027 12.2102 4.96027 12.0902C5.07027 11.9802 5.23027 11.9102 5.39027 11.9102H14.0703C14.1503 11.9102 14.2303 11.9302 14.3003 11.9602C14.3703 11.9902 14.4403 12.0302 14.5003 12.0902C14.5603 12.1502 14.6003 12.2102 14.6303 12.2902C14.6603 12.3602 14.6803 12.4402 14.6803 12.5202C14.6803 12.6002 14.6603 12.6802 14.6303 12.7502C14.6003 12.8202 14.5603 12.8902 14.5003 12.9502C14.4403 13.0102 14.3803 13.0502 14.3003 13.0802C14.2303 13.1102 14.1503 13.1302 14.0703 13.1302ZM14.0703 15.8702H5.39027C5.23027 15.8702 5.08027 15.8102 4.96027 15.6902C4.84027 15.5702 4.78027 15.4202 4.78027 15.2602C4.78027 15.1002 4.84027 14.9502 4.96027 14.8302C5.07027 14.7202 5.23027 14.6502 5.39027 14.6502H14.0703C14.2303 14.6502 14.3803 14.7102 14.5003 14.8302C14.6103 14.9402 14.6803 15.1002 14.6803 15.2602C14.6803 15.4202 14.6203 15.5702 14.5003 15.6902C14.3903 15.8002 14.2303 15.8702 14.0703 15.8702ZM14.0703 18.6102H5.39027C5.23027 18.6102 5.08027 18.5502 4.96027 18.4302C4.85027 18.3202 4.78027 18.1602 4.78027 18.0002C4.78027 17.8402 4.84027 17.6902 4.96027 17.5702C5.07027 17.4602 5.23027 17.3902 5.39027 17.3902H14.0703C14.2303 17.3902 14.3803 17.4502 14.5003 17.5702C14.6103 17.6802 14.6803 17.8402 14.6803 18.0002C14.6803 18.1602 14.6203 18.3102 14.5003 18.4302C14.3903 18.5402 14.2303 18.6102 14.0703 18.6102ZM14.0703 28.8902H5.39027C5.31027 28.8902 5.23027 28.8702 5.16027 28.8402C5.09027 28.8102 5.02027 28.7702 4.96027 28.7102C4.90027 28.6502 4.86027 28.5902 4.83027 28.5102C4.80027 28.4402 4.78027 28.3602 4.78027 28.2802C4.78027 28.1202 4.84027 27.9702 4.96027 27.8502C5.07027 27.7402 5.23027 27.6702 5.39027 27.6702H14.0703C14.1503 27.6702 14.2303 27.6902 14.3003 27.7202C14.3703 27.7502 14.4403 27.7902 14.5003 27.8502C14.5603 27.9102 14.6003 27.9702 14.6303 28.0502C14.6603 28.1202 14.6803 28.2002 14.6803 28.2802C14.6803 28.3602 14.6603 28.4402 14.6303 28.5102C14.6003 28.5802 14.5603 28.6502 14.5003 28.7102C14.4403 28.7702 14.3803 28.8102 14.3003 28.8402C14.2303 28.8702 14.1503 28.8902 14.0703 28.8902Z" fill="#B5EAF0"/>
<path d="M5.39027 21.8596H14.0703C14.2303 21.8596 14.3803 21.7996 14.5003 21.6796C14.6103 21.5696 14.6803 21.4096 14.6803 21.2496C14.6803 21.0896 14.6203 20.9396 14.5003 20.8196C14.3903 20.7096 14.2303 20.6396 14.0703 20.6396H5.39027C5.23027 20.6396 5.08027 20.6996 4.96027 20.8196C4.85027 20.9296 4.78027 21.0896 4.78027 21.2496C4.78027 21.4096 4.84027 21.5596 4.96027 21.6796C5.07027 21.7896 5.23027 21.8596 5.39027 21.8596Z" fill="#B5EAF0"/>
<path d="M5.39027 25.4798H14.0703C14.2303 25.4798 14.3803 25.4198 14.5003 25.2998C14.6103 25.1898 14.6803 25.0298 14.6803 24.8698C14.6803 24.7098 14.6203 24.5598 14.5003 24.4398C14.3903 24.3298 14.2303 24.2598 14.0703 24.2598H5.39027C5.23027 24.2598 5.08027 24.3198 4.96027 24.4398C4.85027 24.5498 4.78027 24.7098 4.78027 24.8698C4.78027 25.0298 4.84027 25.1798 4.96027 25.2998C5.07027 25.4098 5.23027 25.4798 5.39027 25.4798Z" fill="#B5EAF0"/>
</g>
<path d="M22.4902 3.17012C22.3302 3.17012 22.1702 3.11012 22.0602 2.99012C21.9402 2.87012 21.8802 2.72012 21.8802 2.56012V0.730117C21.8802 0.570117 21.9502 0.410117 22.0602 0.300117C22.1802 0.190117 22.3302 0.120117 22.4902 0.120117C22.6502 0.120117 22.8102 0.180117 22.9202 0.300117C23.0402 0.410117 23.1002 0.570117 23.1002 0.730117V2.55012C23.1002 2.63012 23.0802 2.71012 23.0502 2.79012C23.0202 2.86012 22.9702 2.93012 22.9202 2.99012C22.8602 3.05012 22.8002 3.09012 22.7202 3.12012C22.6502 3.15012 22.5702 3.17012 22.4802 3.17012H22.4902ZM18.2302 4.38012C18.1502 4.38012 18.0702 4.36012 17.9902 4.33012C17.9202 4.30012 17.8502 4.25012 17.7902 4.20012L16.5102 2.92012C16.4502 2.86012 16.4102 2.80012 16.3802 2.72012C16.3502 2.65012 16.3302 2.57012 16.3302 2.48012C16.3302 2.39012 16.3502 2.32012 16.3802 2.24012C16.4102 2.17012 16.4602 2.10012 16.5102 2.04012C16.5702 1.98012 16.6302 1.94012 16.7102 1.91012C16.7802 1.88012 16.8602 1.86012 16.9502 1.86012C17.0402 1.86012 17.1102 1.88012 17.1902 1.91012C17.2602 1.94012 17.3302 1.99012 17.3902 2.04012L18.6702 3.32012C18.7602 3.41012 18.8102 3.52012 18.8402 3.63012C18.8602 3.75012 18.8502 3.87012 18.8102 3.99012C18.7602 4.10012 18.6802 4.20012 18.5802 4.27012C18.4802 4.34012 18.3602 4.37012 18.2402 4.37012L18.2302 4.38012ZM26.7502 4.38012C26.6302 4.38012 26.5102 4.34012 26.4102 4.28012C26.3102 4.21012 26.2302 4.12012 26.1802 4.00012C26.1302 3.89012 26.1202 3.76012 26.1502 3.64012C26.1702 3.52012 26.2302 3.41012 26.3202 3.33012L27.6002 2.05012C27.6602 1.99012 27.7202 1.95012 27.8002 1.92012C27.8702 1.89012 27.9502 1.87012 28.0402 1.87012C28.1302 1.87012 28.2002 1.89012 28.2802 1.92012C28.3502 1.95012 28.4202 2.00012 28.4802 2.05012C28.5402 2.11012 28.5802 2.17012 28.6102 2.25012C28.6402 2.32012 28.6602 2.40012 28.6602 2.49012C28.6602 2.58012 28.6402 2.65012 28.6102 2.73012C28.5802 2.80012 28.5302 2.87012 28.4802 2.93012L27.2002 4.21012C27.1402 4.27012 27.0802 4.31012 27.0002 4.34012C26.9302 4.37012 26.8502 4.39012 26.7602 4.39012L26.7502 4.38012ZM31.4502 7.97012H29.6302C29.4702 7.97012 29.3102 7.90012 29.2002 7.79012C29.0902 7.68012 29.0202 7.52012 29.0202 7.36012C29.0202 7.20012 29.0802 7.04012 29.2002 6.93012C29.3102 6.82012 29.4702 6.75012 29.6302 6.75012H31.4502C31.6102 6.75012 31.7702 6.82012 31.8802 6.93012C31.9902 7.04012 32.0602 7.20012 32.0602 7.36012C32.0602 7.52012 32.0002 7.68012 31.8802 7.79012C31.7702 7.90012 31.6102 7.97012 31.4502 7.97012ZM15.3402 7.97012H13.5202C13.3602 7.97012 13.2002 7.91012 13.0902 7.79012C12.9702 7.67012 12.9102 7.52012 12.9102 7.36012C12.9102 7.20012 12.9702 7.04012 13.0902 6.93012C13.2102 6.81012 13.3602 6.75012 13.5202 6.75012H15.3402C15.5002 6.75012 15.6602 6.82012 15.7702 6.93012C15.8802 7.04012 15.9502 7.20012 15.9502 7.36012C15.9502 7.52012 15.8902 7.68012 15.7702 7.79012C15.6602 7.90012 15.5002 7.97012 15.3402 7.97012Z" fill="#2F9AA8"/>
<path d="M20.2 16.9705H24.78C25.08 16.0805 25.57 15.2705 26.23 14.6005C27.19 13.6105 27.76 12.2405 27.7 10.7405C27.59 8.05052 25.39 5.86052 22.7 5.76052C19.73 5.65052 17.29 8.02052 17.29 10.9705C17.29 12.3805 17.85 13.6605 18.77 14.6005C19.42 15.2705 19.92 16.0805 20.22 16.9705H20.2Z" fill="#5ED8E8"/>
<path d="M20.2002 16.9404H24.7802V18.8104C24.7802 20.0704 23.7602 21.1004 22.4902 21.1004C21.2202 21.1004 20.2002 20.0804 20.2002 18.8104V16.9404Z" fill="#2BB0C1"/>
</svg>
