<svg width="34" height="34" viewBox="0 0 40 40" fill="none" xmlns="http://www.w3.org/2000/svg">
<path d="M23.7309 12.3252C23.1015 12.3252 22.5898 11.8136 22.5898 11.1842V7.05645C22.5898 6.56615 22.1908 6.16788 21.7005 6.16788H15.4166C14.9263 6.16788 14.528 6.56689 14.528 7.05645V11.1842C14.528 11.8136 14.0163 12.3252 13.3869 12.3252C12.7575 12.3252 12.2458 11.8136 12.2458 11.1842V7.05645C12.2458 5.30803 13.6681 3.88574 15.4166 3.88574H21.7005C23.4489 3.88574 24.8712 5.30803 24.8712 7.05645V11.1842C24.8712 11.8136 24.3596 12.3252 23.7302 12.3252H23.7309Z" fill="#2BB0C1"/>
<path d="M32.1351 33.1112H4.98129C3.17325 33.1112 1.70679 31.6454 1.70679 29.8367V12.8053C1.70679 10.9972 3.17251 9.53076 4.98129 9.53076H32.1351C33.9431 9.53076 35.4096 10.9965 35.4096 12.8053V29.8367C35.4096 31.6447 33.9439 33.1112 32.1351 33.1112Z" fill="#5ED8E8"/>
<path d="M32.1351 9.53125H4.98129C3.17325 9.53125 1.70679 10.997 1.70679 12.8058V15.0827C1.70679 18.3595 4.36289 21.0156 7.63961 21.0156H29.4753C32.752 21.0156 35.4081 18.3595 35.4081 15.0827V12.8058C35.4081 10.9977 33.9424 9.53199 32.1343 9.53199L32.1351 9.53125Z" fill="#2BB0C1"/>
<path d="M9.23851 25.0899C8.39338 25.0899 7.70874 24.4052 7.70874 23.5601V20.0044C7.70874 19.1593 8.39412 18.4746 9.23851 18.4746C10.0829 18.4746 10.7683 19.1593 10.7683 20.0044V23.5601C10.7683 24.4052 10.0829 25.0899 9.23851 25.0899Z" fill="#5ED8E8"/>
<path d="M7.70874 22.4146V23.5593C7.70874 24.4044 8.39413 25.0891 9.23852 25.0891C10.0829 25.0891 10.7683 24.4044 10.7683 23.5593V22.4146H7.70801H7.70874Z" fill="#2BB0C1"/>
<path d="M23.9333 25.7817L25.5035 27.352L22.2143 30.6405L20.644 29.0702L23.9333 25.7817Z" fill="#DBF1F4"/>
<path d="M18.1359 35.6059L22.6384 31.1035C22.896 30.8458 22.8968 30.4269 22.6384 30.1693L21.1211 28.652C20.8635 28.3944 20.4446 28.3936 20.1869 28.652L15.6845 33.1545C15.0072 33.8317 15.0072 34.9294 15.6845 35.6059C16.3618 36.2832 17.4594 36.2832 18.1359 35.6059Z" fill="#2BB0C1"/>
<path d="M22.6384 30.1693L21.1212 28.652C20.8635 28.3944 20.4446 28.3936 20.1869 28.652L19.1938 29.6451L21.6453 32.0966L22.6384 31.1035C22.8961 30.8458 22.8961 30.4269 22.6384 30.1693Z" fill="#5ED8E8"/>
<path d="M29.6962 30.1907C34.4442 30.1907 38.2932 26.3416 38.2932 21.5936C38.2932 16.8456 34.4442 12.9966 29.6962 12.9966C24.9482 12.9966 21.0991 16.8456 21.0991 21.5936C21.0991 26.3416 24.9482 30.1907 29.6962 30.1907Z" fill="#DBF1F4"/>
<path d="M29.696 27.6728C33.0536 27.6728 35.7754 24.951 35.7754 21.5935C35.7754 18.236 33.0536 15.5142 29.696 15.5142C26.3385 15.5142 23.6167 18.236 23.6167 21.5935C23.6167 24.951 26.3385 27.6728 29.696 27.6728Z" fill="#DBF1F4"/>
</svg>
