<svg width="34" height="34" viewBox="0 0 40 40" fill="none" xmlns="http://www.w3.org/2000/svg">
<path d="M14.6972 3.3335H7.12133C5.0295 3.3335 3.33374 5.02926 3.33374 7.12108V9.79647C3.33374 11.8883 5.0295 13.5841 7.12133 13.5841H14.6972C16.789 13.5841 18.4848 11.8883 18.4848 9.79647V7.12108C18.4848 5.02926 16.789 3.3335 14.6972 3.3335Z" fill="#5ED8E8"/>
<path d="M14.6972 15.8101H7.12133C5.0295 15.8101 3.33374 17.5058 3.33374 19.5976V32.8794C3.33374 34.9712 5.0295 36.667 7.12133 36.667H14.6972C16.789 36.667 18.4848 34.9712 18.4848 32.8794V19.5976C18.4848 17.5058 16.789 15.8101 14.6972 15.8101Z" fill="#2BB0C1"/>
<path d="M32.8786 26.4155H25.3027C23.2109 26.4155 21.5151 28.1113 21.5151 30.2031V32.8785C21.5151 34.9703 23.2109 36.6661 25.3027 36.6661H32.8786C34.9704 36.6661 36.6662 34.9703 36.6662 32.8785V30.2031C36.6662 28.1113 34.9704 26.4155 32.8786 26.4155Z" fill="#5ED8E8"/>
<path d="M32.8786 3.3335H25.3027C23.2109 3.3335 21.5151 5.02926 21.5151 7.12108V20.4029C21.5151 22.4947 23.2109 24.1904 25.3027 24.1904H32.8786C34.9704 24.1904 36.6662 22.4947 36.6662 20.4029V7.12108C36.6662 5.02926 34.9704 3.3335 32.8786 3.3335Z" fill="#2BB0C1"/>
</svg>
