<svg width="34" height="34" viewBox="0 0 34 35" fill="none" xmlns="http://www.w3.org/2000/svg">
<g clip-path="url(#clip0_1191_20559)">
<path fill-rule="evenodd" clip-rule="evenodd" d="M14.6589 33.9914C14.0414 33.9914 13.424 33.6926 12.9459 33.1548L6.79127 26.1437C6.45266 25.7453 10.7948 23.0564 11.1334 23.4348L17.308 30.4659C18.0449 31.3223 17.4872 32.6569 16.4913 33.2146C15.9137 33.5731 15.356 33.9914 14.6589 33.9914Z" fill="#2BB0C1"/>
<path fill-rule="evenodd" clip-rule="evenodd" d="M12.7272 26.2433C12.2492 26.2433 12.1695 25.586 12.6276 25.4665C14.1414 25.0682 14.7589 23.2357 13.7431 22.0008C13.4244 21.6024 14.0219 21.1045 14.3605 21.5028C16.1332 23.654 14.0617 26.2433 12.7272 26.2433ZM27.3072 13.4161C26.8889 13.4161 23.6821 7.54033 23.5427 7.32123C23.224 6.74361 25.7934 4.53271 28.5222 9.27319C29.3588 10.7272 29.0202 12.48 27.7653 13.197L27.3072 13.4161ZM3.80398 26.5222C2.62882 26.5222 1.49349 25.9047 0.856119 24.8092L0.457759 24.1121C-0.43855 22.5585 0.0394814 20.5468 1.55325 19.5509C1.99144 19.272 6.13438 25.7454 5.33767 26.1437C4.85963 26.4027 4.32185 26.5222 3.80398 26.5222Z" fill="#2BB0C1"/>
<path fill-rule="evenodd" clip-rule="evenodd" d="M11.6914 22.9376C11.313 22.9376 11.1736 22.4795 11.4126 22.2604L7.94684 16.2651C7.58831 16.3647 7.22979 15.8668 7.5684 15.568C8.94274 14.4128 15.8344 8.43736 17.8461 3.35827C17.9656 3.0595 18.3839 3.01966 18.5631 3.31843L27.9246 19.5317C28.0839 19.8304 27.8449 20.189 27.5262 20.1292C21.511 19.2528 11.9703 22.9376 11.6914 22.9376Z" fill="#DBF1F4"/>
<path fill-rule="evenodd" clip-rule="evenodd" d="M5.93511 26.8413C5.55667 26.8413 5.17823 26.6222 4.99897 26.2836L1.23447 19.7904C0.935698 19.2725 1.11496 18.6152 1.63283 18.3164L6.75175 15.3686C7.26962 15.0698 7.92691 15.2491 8.22568 15.7669L11.9703 22.2602C12.269 22.7781 12.1097 23.4354 11.5918 23.7341L6.4729 26.682C6.31355 26.7816 6.11437 26.8413 5.93511 26.8413ZM28.5022 21.1846C28.1636 21.1846 27.8449 21.0054 27.6856 20.7066L17.4278 2.93976C17.1689 2.48165 17.3083 1.90402 17.7664 1.64509C18.3042 1.34632 19.5391 0.509766 19.9972 0.509766C20.3358 0.509766 20.6346 0.689028 20.8138 0.987797L31.0716 18.7546C31.3305 19.1928 31.1712 19.7705 30.733 20.0294C30.1753 20.3481 28.9404 21.1846 28.5022 21.1846Z" fill="#5ED8E8"/>
<path fill-rule="evenodd" clip-rule="evenodd" d="M3.78367 20.5271C3.38531 20.5271 3.22597 19.9893 3.58449 19.7702L7.05022 17.7784C7.50834 17.5194 7.9067 18.2166 7.44858 18.4755C6.99047 18.7344 4.02269 20.5271 3.78367 20.5271ZM4.87916 22.4193C4.4808 22.4193 4.32146 21.8815 4.67998 21.6823L8.14571 19.6905C8.60383 19.4117 9.00218 20.1088 8.54407 20.3677C8.08596 20.6267 5.1381 22.4193 4.87916 22.4193ZM5.97465 24.3314C5.57629 24.3314 5.43687 23.7936 5.77547 23.5745L9.2412 21.5827C9.69931 21.3238 10.0977 22.001 9.63956 22.2798C9.18145 22.5388 6.23358 24.3314 5.97465 24.3314Z" fill="#2BB0C1"/>
<path fill-rule="evenodd" clip-rule="evenodd" d="M29.0399 8.47701C28.6415 8.47701 28.4822 7.93923 28.8407 7.74005L31.0914 6.44538C31.5296 6.16653 31.928 6.86365 31.4898 7.12259C31.1313 7.32177 29.2789 8.47701 29.0399 8.47701ZM30.8126 11.5245C30.2947 11.5245 30.2748 10.7676 30.7727 10.7277L33.5812 10.5684C34.099 10.5485 34.1389 11.3452 33.621 11.3651L30.8126 11.5245ZM27.2871 5.42956C26.9684 5.42956 26.7692 5.07104 26.9485 4.8121L28.4822 2.46178C28.761 2.02358 29.4382 2.46178 29.1395 2.89998L27.6058 5.2503C27.5261 5.34989 27.4066 5.42956 27.2871 5.42956Z" fill="#47A4EB"/>
</g>
<defs>
<clipPath id="clip0_1191_20559">
<rect width="34" height="34" fill="white" transform="translate(0 0.250977)"/>
</clipPath>
</defs>
</svg>
