<svg width="34" height="34" viewBox="0 0 34 34" fill="none" xmlns="http://www.w3.org/2000/svg">
<path d="M31.4099 4.534V31.734C31.4114 32.356 31.2338 32.9653 30.8982 33.489C30.3745 33.8246 29.7652 34.0022 29.1432 34.0007H5.82892C4.97013 34.0007 4.14651 33.6595 3.53925 33.0522C2.93199 32.445 2.59083 31.6214 2.59083 30.7626V3.56257C2.58926 2.94056 2.76688 2.33126 3.10245 1.80753C3.62618 1.47196 4.23548 1.29434 4.8575 1.29591H28.1718C29.0306 1.29591 29.8542 1.63706 30.4614 2.24432C31.0687 2.85158 31.4099 3.67521 31.4099 4.534Z" fill="#2893A1"/>
<path d="M27.5241 3.88574H5.50504C5.14737 3.88574 4.85742 4.17569 4.85742 4.53336V31.0857C4.85742 31.4434 5.14737 31.7333 5.50504 31.7333H27.5241C27.8817 31.7333 28.1717 31.4434 28.1717 31.0857V4.53336C28.1717 4.17569 27.8817 3.88574 27.5241 3.88574Z" fill="#DBF1F4"/>
<path d="M24.9338 1.94286V4.53333C24.9323 5.04814 24.7271 5.54142 24.363 5.90544C23.999 6.26946 23.5057 6.47465 22.9909 6.47619H10.0386C9.84774 6.47455 9.65809 6.44621 9.47513 6.392C9.07625 6.27113 8.72681 6.02519 8.47842 5.6905C8.23003 5.35581 8.09585 4.95012 8.0957 4.53333V1.94286C8.09724 1.42805 8.30243 0.934771 8.66645 0.570748C9.03047 0.206724 9.52375 0.00153757 10.0386 6.60275e-08H22.9909C23.3921 -0.000104711 23.7833 0.124494 24.1105 0.356549C24.4377 0.588604 24.6847 0.916636 24.8172 1.29524C24.8319 1.32165 24.8428 1.34999 24.8496 1.37943C24.9038 1.56239 24.9321 1.75204 24.9338 1.94286Z" fill="#2BB0C1"/>
<path d="M23.4844 12.4991H18.4882C18.3557 12.4991 18.2286 12.4465 18.1349 12.3528C18.0412 12.2591 17.9886 12.132 17.9886 11.9995C17.9886 11.867 18.0412 11.7399 18.1349 11.6462C18.2286 11.5525 18.3557 11.4999 18.4882 11.4999H23.4844C23.6169 11.4999 23.744 11.5525 23.8377 11.6462C23.9314 11.7399 23.984 11.867 23.984 11.9995C23.984 12.132 23.9314 12.2591 23.8377 12.3528C23.744 12.4465 23.6169 12.4991 23.4844 12.4991ZM21.4859 14.4976H18.4882C18.3557 14.4976 18.2286 14.4449 18.1349 14.3513C18.0412 14.2576 17.9886 14.1305 17.9886 13.998C17.9886 13.8655 18.0412 13.7384 18.1349 13.6447C18.2286 13.551 18.3557 13.4983 18.4882 13.4983H21.4859C21.6184 13.4983 21.7455 13.551 21.8392 13.6447C21.9329 13.7384 21.9855 13.8655 21.9855 13.998C21.9855 14.1305 21.9329 14.2576 21.8392 14.3513C21.7455 14.4449 21.6184 14.4976 21.4859 14.4976ZM12.9923 14.4976C12.8598 14.4976 12.7328 14.4449 12.6391 14.3512L11.1402 12.8523C11.0492 12.7581 10.9989 12.6319 11 12.5009C11.0012 12.3699 11.0537 12.2446 11.1463 12.152C11.239 12.0593 11.3643 12.0068 11.4953 12.0056C11.6263 12.0045 11.7525 12.0549 11.8467 12.1459L13.0233 13.322L15.6713 11.1157C15.7732 11.0308 15.9046 10.99 16.0366 11.0021C16.1687 11.0142 16.2905 11.0782 16.3753 11.1801C16.4601 11.282 16.5009 11.4134 16.4888 11.5454C16.4768 11.6775 16.4127 11.7993 16.3108 11.8841L13.3131 14.3822C13.223 14.4571 13.1095 14.4979 12.9923 14.4976ZM23.4844 17.4953H18.4882C18.3557 17.4953 18.2286 17.4427 18.1349 17.349C18.0412 17.2553 17.9886 17.1282 17.9886 16.9957C17.9886 16.8632 18.0412 16.7361 18.1349 16.6424C18.2286 16.5487 18.3557 16.4961 18.4882 16.4961H23.4844C23.6169 16.4961 23.744 16.5487 23.8377 16.6424C23.9314 16.7361 23.984 16.8632 23.984 16.9957C23.984 17.1282 23.9314 17.2553 23.8377 17.349C23.744 17.4427 23.6169 17.4953 23.4844 17.4953ZM21.4859 19.4938H18.4882C18.3557 19.4938 18.2286 19.4412 18.1349 19.3475C18.0412 19.2538 17.9886 19.1267 17.9886 18.9942C17.9886 18.8617 18.0412 18.7346 18.1349 18.6409C18.2286 18.5472 18.3557 18.4946 18.4882 18.4946H21.4859C21.6184 18.4946 21.7455 18.5472 21.8392 18.6409C21.9329 18.7346 21.9855 18.8617 21.9855 18.9942C21.9855 19.1267 21.9329 19.2538 21.8392 19.3475C21.7455 19.4412 21.6184 19.4938 21.4859 19.4938ZM12.9923 19.4938C12.8598 19.4938 12.7328 19.4411 12.6391 19.3474L11.1402 17.8485C11.0492 17.7543 10.9989 17.6281 11 17.4971C11.0012 17.3661 11.0537 17.2408 11.1463 17.1482C11.239 17.0555 11.3643 17.003 11.4953 17.0018C11.6263 17.0007 11.7525 17.0511 11.8467 17.1421L13.0233 18.3182L15.6713 16.1119C15.7732 16.0271 15.9046 15.9862 16.0366 15.9983C16.1687 16.0104 16.2905 16.0744 16.3753 16.1763C16.4601 16.2782 16.5009 16.4096 16.4888 16.5416C16.4768 16.6737 16.4127 16.7955 16.3108 16.8803L13.3131 19.3784C13.223 19.4533 13.1095 19.4941 12.9923 19.4938ZM23.4844 22.4915H18.4882C18.3557 22.4915 18.2286 22.4389 18.1349 22.3452C18.0412 22.2515 17.9886 22.1244 17.9886 21.9919C17.9886 21.8594 18.0412 21.7323 18.1349 21.6386C18.2286 21.5449 18.3557 21.4923 18.4882 21.4923H23.4844C23.6169 21.4923 23.744 21.5449 23.8377 21.6386C23.9314 21.7323 23.984 21.8594 23.984 21.9919C23.984 22.1244 23.9314 22.2515 23.8377 22.3452C23.744 22.4389 23.6169 22.4915 23.4844 22.4915ZM21.4859 24.49H18.4882C18.3557 24.49 18.2286 24.4374 18.1349 24.3437C18.0412 24.25 17.9886 24.1229 17.9886 23.9904C17.9886 23.8579 18.0412 23.7308 18.1349 23.6371C18.2286 23.5434 18.3557 23.4908 18.4882 23.4908H21.4859C21.6184 23.4908 21.7455 23.5434 21.8392 23.6371C21.9329 23.7308 21.9855 23.8579 21.9855 23.9904C21.9855 24.1229 21.9329 24.25 21.8392 24.3437C21.7455 24.4374 21.6184 24.49 21.4859 24.49ZM12.9923 24.49C12.8598 24.49 12.7328 24.4373 12.6391 24.3436L11.1402 22.8447C11.0492 22.7505 10.9989 22.6243 11 22.4933C11.0012 22.3623 11.0537 22.237 11.1463 22.1444C11.239 22.0517 11.3643 21.9992 11.4953 21.9981C11.6263 21.9969 11.7525 22.0473 11.8467 22.1383L13.0233 23.3144L15.6713 21.1081C15.7218 21.0661 15.78 21.0344 15.8427 21.0149C15.9054 20.9955 15.9713 20.9885 16.0366 20.9945C16.102 21.0005 16.1656 21.0193 16.2237 21.0498C16.2818 21.0804 16.3333 21.1221 16.3753 21.1725C16.4173 21.223 16.4489 21.2812 16.4684 21.3439C16.4879 21.4066 16.4948 21.4725 16.4888 21.5378C16.4829 21.6032 16.4641 21.6668 16.4335 21.7249C16.403 21.783 16.3613 21.8345 16.3108 21.8765L13.3131 24.3746C13.223 24.4495 13.1095 24.4903 12.9923 24.49Z" fill="#5ED8E8"/>
</svg>
