<svg width="34" height="34" viewBox="0 0 40 40" fill="none" xmlns="http://www.w3.org/2000/svg">
<path d="M3.3291 13.3906V33.8883C3.3291 35.4231 4.57159 36.6669 6.10776 36.6669H33.8922C35.4265 36.6669 36.6709 35.4238 36.6709 33.8883V13.3906H3.32975H3.3291Z" fill="#DBF1F4"/>
<path d="M11.2791 19.0398H16.1852V31.1572H13.5856V21.3457H11.2791V19.0398ZM23.709 31.2959C22.0335 31.2959 20.78 30.7268 19.9471 29.5885C19.1155 28.4502 18.6988 26.9303 18.6988 25.0288C18.6988 23.1273 19.1155 21.6074 19.9471 20.4692C20.78 19.3322 22.0335 18.7617 23.709 18.7617C25.3846 18.7617 26.6394 19.3322 27.471 20.4692C28.3039 21.6074 28.7193 23.1286 28.7193 25.0288C28.7193 26.929 28.3039 28.4502 27.471 29.5885C26.6394 30.7261 25.3846 31.2959 23.709 31.2959ZM21.9241 22.1076C21.5425 22.8467 21.3517 23.8241 21.3517 25.0373C21.3517 26.2505 21.5425 27.2272 21.9241 27.967C22.3057 28.7068 22.9009 29.0773 23.709 29.0773C24.5172 29.0773 25.113 28.7074 25.4953 27.967C25.8769 27.2279 26.0664 26.2492 26.0664 25.0373C26.0664 23.8254 25.8769 22.8473 25.4953 22.1076C25.1124 21.3691 24.5172 20.9966 23.709 20.9966C22.9009 20.9966 22.3044 21.3691 21.9241 22.1076Z" fill="#2BB0C1"/>
<path d="M33.8922 5.31071H6.10776C4.57354 5.31071 3.3291 6.55449 3.3291 8.08936V13.3953H36.6702V8.0887C36.6702 6.55449 35.4265 5.31006 33.8916 5.31006" fill="#2BB0C1"/>
<path d="M32.2566 9.35121C32.2566 10.4368 31.3775 11.3172 30.2906 11.3172C29.2038 11.3172 28.3259 10.4374 28.3259 9.35121C28.3259 8.26502 29.2051 7.38525 30.2906 7.38525C31.3762 7.38525 32.2566 8.26567 32.2566 9.35121ZM11.6762 9.35121C11.6762 10.4368 10.7951 11.3172 9.71025 11.3172C8.62536 11.3172 7.74561 10.4374 7.74561 9.35121C7.74561 8.26502 8.62471 7.38525 9.71025 7.38525C10.7958 7.38525 11.6762 8.26567 11.6762 9.35121Z" fill="#DBF1F4"/>
<path d="M30.3107 3.3335C29.5892 3.3335 29.0031 3.91827 29.0031 4.64109L28.9829 8.88102C28.9829 9.60319 29.569 10.1886 30.2925 10.1886C31.016 10.1886 31.6001 9.60319 31.6001 8.88102L31.6203 4.64109C31.6203 3.91827 31.0342 3.3335 30.3107 3.3335ZM9.73037 3.3335C9.00884 3.3335 8.42276 3.91827 8.42276 4.64109L8.40259 8.88037C8.40259 9.60254 8.98865 10.188 9.71018 10.188C10.4317 10.188 11.0178 9.60254 11.0178 8.88037L11.038 4.64044C11.038 3.91827 10.4532 3.3335 9.73037 3.3335Z" fill="#2BB0C1"/>
</svg>
