<svg width="34" height="34" viewBox="0 0 40 40" fill="none" xmlns="http://www.w3.org/2000/svg">
<path d="M34.5234 16.8413H34.5181C33.8007 16.8413 33.1698 16.3778 32.9439 15.6968C32.7382 15.0789 32.4888 14.4761 32.1965 13.894C31.8743 13.2515 31.9908 12.4767 32.4993 11.9683L32.5032 11.9644C33.1496 11.3179 33.1496 10.2697 32.5032 9.62321L30.3775 7.49756C29.731 6.85107 28.6829 6.85107 28.0364 7.49756L28.0325 7.50146C27.524 8.00993 26.7493 8.12646 26.1067 7.8042C25.5246 7.51188 24.9218 7.26253 24.3039 7.0568C23.623 6.83089 23.1594 6.20003 23.1594 5.48258V5.47738C23.1594 4.56331 22.4185 3.82178 21.5038 3.82178H18.4973C17.5832 3.82178 16.8417 4.56266 16.8417 5.47738V5.48258C16.8417 6.20003 16.3782 6.83089 15.6972 7.0568C15.0794 7.26253 14.4765 7.51188 13.8944 7.8042C13.2519 8.12646 12.4771 8.00993 11.9687 7.50146L11.9648 7.49756C11.3183 6.85107 10.2701 6.85107 9.62362 7.49756L7.49731 9.62321C6.85083 10.2697 6.85083 11.3179 7.49731 11.9644L7.50122 11.9683C8.00969 12.4767 8.12622 13.2515 7.80395 13.894C7.51163 14.4761 7.26228 15.0789 7.05656 15.6968C6.83064 16.3778 6.19977 16.8413 5.48233 16.8413H5.47711C4.56305 16.8413 3.82153 17.5822 3.82153 18.4969V21.5034C3.82153 22.4175 4.5624 23.159 5.47711 23.159H5.48233C6.19977 23.159 6.83064 23.6226 7.05656 24.3035C7.26228 24.9214 7.51163 25.5243 7.80395 26.1063C8.12622 26.7489 8.00969 27.5236 7.50122 28.0321L7.49731 28.036C6.85083 28.6825 6.85083 29.7306 7.49731 30.3771L9.62296 32.5028C10.2694 33.1493 11.3176 33.1493 11.9641 32.5028L11.968 32.4989C12.4765 31.9904 13.2512 31.8739 13.8938 32.1961C14.4758 32.4884 15.0787 32.7378 15.6965 32.9435C16.3775 33.1694 16.8411 33.8003 16.8411 34.5177V34.5229C16.8411 35.437 17.582 36.1785 18.4967 36.1785H21.5032C22.4172 36.1785 23.1588 35.4377 23.1588 34.5229V34.5177C23.1588 33.8003 23.6223 33.1694 24.3033 32.9435C24.9211 32.7378 25.524 32.4884 26.106 32.1961C26.7486 31.8739 27.5234 31.9904 28.0318 32.4989L28.0357 32.5028C28.6822 33.1493 29.7304 33.1493 30.3769 32.5028L32.5025 30.3771C33.149 29.7306 33.149 28.6825 32.5025 28.036L32.4986 28.0321C31.9902 27.5236 31.8736 26.7489 32.1959 26.1063C32.4882 25.5243 32.7376 24.9214 32.9433 24.3035C33.1692 23.6226 33.8 23.159 34.5175 23.159H34.5227C35.4368 23.159 36.1783 22.4181 36.1783 21.5034V18.4969C36.1783 17.5828 35.4374 16.8413 34.5227 16.8413H34.5234ZM20.0006 27.4683C15.8762 27.4683 12.5325 24.1245 12.5325 20.0002C12.5325 15.8758 15.8762 12.5321 20.0006 12.5321C24.1249 12.5321 27.4687 15.8758 27.4687 20.0002C27.4687 24.1245 24.1249 27.4683 20.0006 27.4683Z" fill="#DBF1F4"/>
<path d="M20.0006 10.2964C14.6413 10.2964 10.2969 14.6408 10.2969 20.0002C10.2969 25.3595 14.6413 29.7039 20.0006 29.7039C25.36 29.7039 29.7044 25.3595 29.7044 20.0002C29.7044 14.6408 25.36 10.2964 20.0006 10.2964ZM20.0006 26.5698C16.3724 26.5698 13.431 23.6284 13.431 20.0002C13.431 16.3719 16.3724 13.4305 20.0006 13.4305C23.6289 13.4305 26.5703 16.3719 26.5703 20.0002C26.5703 23.6284 23.6289 26.5698 20.0006 26.5698Z" fill="#5ED8E8"/>
</svg>
