<svg width="34" height="34" viewBox="0 0 40 40" fill="none" xmlns="http://www.w3.org/2000/svg">
<path d="M9.96957 3.3335V36.6668H6.14561C4.77476 36.6668 3.62036 35.5124 3.62036 34.1416V5.85875C3.62036 4.4879 4.77476 3.3335 6.14561 3.3335H9.96957Z" fill="#5ED8E8"/>
<path d="M29.5224 5.85875V34.1416C29.5224 35.5846 28.4401 36.6668 26.9971 36.6668H9.96973V3.3335H26.9971C28.368 3.3335 29.5224 4.4879 29.5224 5.85875Z" fill="#DBF1F4"/>
<path d="M5.56852 9.97148H2.68252C1.81672 9.97148 1.09521 9.24998 1.09521 8.38418C1.09521 7.51838 1.81672 6.79688 2.68252 6.79688H5.56852C6.50647 6.79688 7.22797 7.51838 7.22797 8.38418C7.22797 9.24998 6.50647 9.97148 5.56852 9.97148ZM5.56852 15.8156H2.68252C1.81672 15.8156 1.09521 15.0941 1.09521 14.1562C1.09521 13.2904 1.81672 12.5689 2.68252 12.5689H5.56852C6.50647 12.5689 7.22797 13.2904 7.22797 14.1562C7.22797 15.0941 6.50647 15.8156 5.56852 15.8156ZM5.56852 21.5876H2.68252C1.81672 21.5876 1.09521 20.8661 1.09521 20.0003C1.09521 19.1345 1.81672 18.413 2.68252 18.413H5.56852C6.50647 18.413 7.22797 19.1345 7.22797 20.0003C7.22797 20.8661 6.50647 21.5876 5.56852 21.5876ZM5.56852 27.4318H2.68252C1.81672 27.4318 1.09521 26.7103 1.09521 25.8445C1.09521 24.9065 1.81672 24.185 2.68252 24.185H5.56852C6.50647 24.185 7.22797 24.9065 7.22797 25.8445C7.22797 26.7103 6.50647 27.4318 5.56852 27.4318ZM5.56852 33.276H2.68252C1.81672 33.276 1.09521 32.5545 1.09521 31.6165C1.09521 30.7507 1.81672 30.0292 2.68252 30.0292H5.56852C6.50647 30.0292 7.22797 30.7507 7.22797 31.6165C7.22797 32.5545 6.50647 33.276 5.56852 33.276Z" fill="#2BB0C1"/>
<path d="M25.5542 8.09555H14.2988C14.0102 8.09555 13.7937 7.8791 13.7937 7.5905C13.7937 7.3019 14.0102 7.08545 14.2988 7.08545H25.5542C25.8428 7.08545 26.0592 7.3019 26.0592 7.5905C26.0592 7.8791 25.8428 8.09555 25.5542 8.09555ZM25.5542 13.0739H14.2988C14.0102 13.0739 13.7937 12.8575 13.7937 12.5689C13.7937 12.2803 14.0102 12.0638 14.2988 12.0638H25.5542C25.8428 12.0638 26.0592 12.2803 26.0592 12.5689C26.0592 12.8575 25.8428 13.0739 25.5542 13.0739ZM25.5542 18.0523H14.2988C14.0102 18.0523 13.7937 17.8358 13.7937 17.5472C13.7937 17.2586 14.0102 17.0422 14.2988 17.0422H25.5542C25.8428 17.0422 26.0592 17.2586 26.0592 17.5472C26.0592 17.8358 25.8428 18.0523 25.5542 18.0523ZM25.5542 22.9585H14.2988C14.0102 22.9585 13.7937 22.742 13.7937 22.4534C13.7937 22.1648 14.0102 21.9484 14.2988 21.9484H25.5542C25.8428 21.9484 26.0592 22.1648 26.0592 22.4534C26.0592 22.742 25.8428 22.9585 25.5542 22.9585ZM25.5542 27.9368H14.2988C14.0102 27.9368 13.7937 27.7204 13.7937 27.4318C13.7937 27.1432 14.0102 26.9267 14.2988 26.9267H25.5542C25.8428 26.9267 26.0592 27.1432 26.0592 27.4318C26.0592 27.7204 25.8428 27.9368 25.5542 27.9368ZM25.5542 32.9152H14.2988C14.0102 32.9152 13.7937 32.6987 13.7937 32.4101C13.7937 32.1215 14.0102 31.9051 14.2988 31.9051H25.5542C25.8428 31.9051 26.0592 32.1215 26.0592 32.4101C26.0592 32.6987 25.8428 32.9152 25.5542 32.9152Z" fill="#5ED8E8"/>
<path d="M35.0261 36.4179L32.0232 31.3703L33.7916 30.7837C34.8774 30.423 36.0506 30.423 37.1364 30.7837L38.9049 31.3703L35.902 36.4179C35.7043 36.7498 35.2245 36.7498 35.0268 36.4179H35.0261Z" fill="#DBF1F4"/>
<path d="M38.9041 31.3703L36.9546 30.9259C35.9734 30.7022 34.9539 30.7022 33.9727 30.9259L32.0232 31.3703V5.60045C32.0232 4.34865 33.0383 3.3335 34.2901 3.3335H36.6379C37.8897 3.3335 38.9049 4.34865 38.9049 5.60045V31.3703H38.9041Z" fill="#2BB0C1"/>
<path d="M34.2894 3.3335H36.6372C37.8883 3.3335 38.9041 4.34937 38.9041 5.60045V7.87246H32.0232V5.60045C32.0232 4.34937 33.0391 3.3335 34.2901 3.3335H34.2894Z" fill="#5ED8E8"/>
<path d="M35.0259 36.4179L33.303 33.5225C34.7135 33.1084 36.2128 33.1084 37.6233 33.5225L35.9004 36.4179C35.7027 36.7498 35.2229 36.7498 35.0252 36.4179H35.0259Z" fill="#5ED8E8"/>
</svg>
