<svg width="34" height="34" viewBox="0 0 40 40" fill="none" xmlns="http://www.w3.org/2000/svg">
<path d="M8.02889 36.4227H5.42207C4.53794 36.4227 3.82178 35.7059 3.82178 34.8225V18.2668C3.82178 17.3827 4.53859 16.6665 5.42207 16.6665H8.02889C8.91303 16.6665 9.62918 17.3833 9.62918 18.2668V34.8225C9.62918 35.7066 8.91237 36.4227 8.02889 36.4227Z" fill="#5ED8E8"/>
<path d="M16.879 36.4228H14.2722C13.388 36.4228 12.6719 35.706 12.6719 34.8225V25.9401C12.6719 25.056 13.3887 24.3398 14.2722 24.3398H16.879C17.7631 24.3398 18.4793 25.0567 18.4793 25.9401V34.8225C18.4793 35.7066 17.7625 36.4228 16.879 36.4228Z" fill="#DBF1F4"/>
<path d="M25.7284 36.4227H23.1215C22.2374 36.4227 21.5212 35.7059 21.5212 34.8224V20.1691C21.5212 19.285 22.238 18.5688 23.1215 18.5688H25.7284C26.6125 18.5688 27.3286 19.2857 27.3286 20.1691V34.8224C27.3286 35.7066 26.6118 36.4227 25.7284 36.4227Z" fill="#5ED8E8"/>
<path d="M34.5782 36.4227H31.9714C31.0873 36.4227 30.3711 35.7059 30.3711 34.8224V13.8278C30.3711 12.9437 31.0879 12.2275 31.9714 12.2275H34.5782C35.4623 12.2275 36.1785 12.9444 36.1785 13.8278V34.8224C36.1785 35.7065 35.4617 36.4227 34.5782 36.4227Z" fill="#2BB0C1"/>
<path d="M6.7257 12.1644C7.55702 12.1644 8.23093 11.4917 8.23093 10.6618C8.23093 9.83193 7.55702 9.15918 6.7257 9.15918C5.89438 9.15918 5.22046 9.83193 5.22046 10.6618C5.22046 11.4917 5.89438 12.1644 6.7257 12.1644Z" fill="#5ED8E8"/>
<path d="M15.5753 21.2894C16.4066 21.2894 17.0805 20.6167 17.0805 19.7868C17.0805 18.9569 16.4066 18.2842 15.5753 18.2842C14.744 18.2842 14.0701 18.9569 14.0701 19.7868C14.0701 20.6167 14.744 21.2894 15.5753 21.2894Z" fill="#DBF1F4"/>
<path d="M24.4252 14.2162C25.2565 14.2162 25.9304 13.5435 25.9304 12.7136C25.9304 11.8837 25.2565 11.2109 24.4252 11.2109C23.5938 11.2109 22.9199 11.8837 22.9199 12.7136C22.9199 13.5435 23.5938 14.2162 24.4252 14.2162Z" fill="#5ED8E8"/>
<path d="M33.2748 7.0707C34.1061 7.0707 34.78 6.39794 34.78 5.56806C34.78 4.73818 34.1061 4.06543 33.2748 4.06543C32.4434 4.06543 31.7695 4.73818 31.7695 5.56806C31.7695 6.39794 32.4434 7.0707 33.2748 7.0707Z" fill="#2BB0C1"/>
<path d="M6.72579 12.6522C7.08712 12.6522 7.42632 12.5552 7.71865 12.3866L13.8802 18.7402C13.7461 18.9564 13.6543 19.1959 13.6113 19.4466C13.5202 19.9707 13.6393 20.4987 13.9466 20.9336C14.2533 21.3679 14.711 21.6576 15.2357 21.7481C15.3503 21.7676 15.4642 21.7774 15.5769 21.7774C16.5281 21.7774 17.3725 21.0931 17.5398 20.1263C17.6095 19.7239 17.5554 19.3196 17.3881 18.957L23.202 14.2863C23.5751 14.5637 23.9833 14.703 24.4267 14.7043C25.3778 14.7043 26.2223 14.0201 26.3896 13.0532C26.4612 12.6411 26.4026 12.2271 26.2249 11.8579L32.0765 7.1573C32.4216 7.41837 32.8428 7.559 33.2751 7.559C34.3741 7.559 35.2687 6.66575 35.2687 5.56807C35.2687 4.4704 34.3748 3.57715 33.2751 3.57715C32.1755 3.57715 31.2816 4.4704 31.2816 5.56807C31.2816 5.86365 31.3474 6.14426 31.4632 6.39686L25.6012 11.1059C25.3538 10.9249 25.0673 10.8039 24.7645 10.7524C23.6825 10.5656 22.648 11.2928 22.4605 12.3742C22.3921 12.7668 22.4422 13.1613 22.5998 13.5168L16.7748 18.1966C16.5222 18.0058 16.2273 17.8789 15.9148 17.8255C15.4564 17.746 14.9851 17.8294 14.5821 18.0618L8.41983 11.7082C8.61515 11.3944 8.71866 11.0317 8.71801 10.6619C8.71801 9.56424 7.82346 8.671 6.72449 8.671C5.62551 8.671 4.73096 9.56424 4.73096 10.6619C4.73096 11.7596 5.62485 12.6528 6.72449 12.6528L6.72579 12.6522ZM33.2751 4.55308C33.8357 4.55308 34.2921 5.00817 34.2921 5.56742C34.2921 6.12668 33.8357 6.58176 33.2751 6.58176C32.7146 6.58176 32.2582 6.11691 32.2582 5.56742C32.2582 5.00817 32.7146 4.55308 33.2751 4.55308ZM23.4234 12.5402C23.5087 12.0474 23.9397 11.6991 24.4247 11.6991C25.053 11.6991 25.5191 12.2733 25.4273 12.8866C25.3316 13.438 24.8049 13.8085 24.2515 13.7128C23.9859 13.6678 23.7489 13.5181 23.594 13.2974C23.4384 13.078 23.3765 12.8052 23.4234 12.5402ZM16.407 19.2025C16.5632 19.4238 16.614 19.694 16.5775 19.959C16.4818 20.5104 15.9551 20.8809 15.4017 20.7852C14.8568 20.6908 14.4785 20.1589 14.5736 19.6133C14.7246 18.7428 15.8933 18.4746 16.407 19.2025ZM6.72579 9.64693C7.28635 9.64693 7.74274 10.102 7.74274 10.6613C7.74274 11.2205 7.28635 11.6756 6.72579 11.6756C6.16523 11.6756 5.70884 11.2205 5.70884 10.6613C5.70884 10.102 6.16523 9.64693 6.72579 9.64693Z" fill="#2BB0C1"/>
</svg>
