<svg width="34" height="34" viewBox="0 0 32 32" fill="none" xmlns="http://www.w3.org/2000/svg">
<path d="M8.03125 26.0938V29.2812C8.06394 30.0181 8.24461 30.7407 8.5625 31.4062H23.4375C23.7554 30.7407 23.9361 30.0181 23.9688 29.2812V26.0938H8.03125Z" fill="#2BB0C1"/>
<path d="M30.8325 7.93564L28.1231 21.4772C28.0116 22.0297 27.6856 22.5155 27.2166 22.8282C26.7476 23.1408 26.1738 23.2549 25.6209 23.1453L1.65625 18.3428C1.25575 18.2631 0.886791 18.0694 0.59375 17.785V12.8391L2.70281 2.29908C2.81436 1.74657 3.14032 1.26079 3.60931 0.948126C4.0783 0.635465 4.65209 0.521415 5.205 0.630956L29.1697 5.43346C29.4433 5.48826 29.7035 5.5965 29.9352 5.75199C30.1669 5.90748 30.3657 6.10715 30.5202 6.33958C30.6747 6.57201 30.7817 6.83263 30.8353 7.1065C30.8889 7.38038 30.888 7.66214 30.8325 7.93564Z" fill="#5ED8E8"/>
<path d="M30.8325 7.93561L28.1231 21.4772C28.0116 22.0297 27.6856 22.5155 27.2166 22.8281C26.7476 23.1408 26.1738 23.2548 25.6209 23.1453L1.65625 18.3428C1.25575 18.2631 0.886791 18.0694 0.59375 17.785V17.599L22.9647 22.0828C23.5176 22.1923 24.0914 22.0783 24.5604 21.7656C25.0294 21.453 25.3553 20.9672 25.4669 20.4147L28.1762 6.87311C28.2379 6.57374 28.2332 6.2645 28.1625 5.96714C28.0918 5.66977 27.9569 5.39149 27.7672 5.15186L29.1697 5.43342C29.4433 5.48822 29.7035 5.59647 29.9352 5.75195C30.1669 5.90744 30.3657 6.10712 30.5202 6.33954C30.6747 6.57197 30.7817 6.83259 30.8353 7.10647C30.8889 7.38034 30.888 7.6621 30.8325 7.93561Z" fill="#5ED8E8"/>
<path d="M27.0825 10.4326L25.6215 17.7256C25.3479 17.6707 25.0662 17.6704 24.7924 17.7244C24.5186 17.7785 24.2582 17.886 24.026 18.0408C23.7938 18.1956 23.5943 18.3945 23.439 18.6264C23.2838 18.8583 23.1757 19.1184 23.121 19.3921L5.41014 15.8444C5.46505 15.5708 5.4655 15.289 5.41149 15.0152C5.35747 14.7414 5.25003 14.4809 5.09532 14.2487C4.94061 14.0164 4.74165 13.8169 4.50981 13.6616C4.27797 13.5062 4.01779 13.398 3.74414 13.3433L5.20508 6.05081C5.47874 6.10571 5.76053 6.10614 6.03436 6.05209C6.30819 5.99804 6.56869 5.89056 6.80096 5.73579C7.03323 5.58103 7.23273 5.38201 7.38806 5.15011C7.54338 4.91821 7.65149 4.65797 7.7062 4.38428L25.4165 7.93196C25.3616 8.20559 25.3611 8.48735 25.4151 8.76115C25.4692 9.03495 25.5766 9.29542 25.7313 9.52769C25.886 9.75995 26.085 9.95946 26.3168 10.1148C26.5487 10.2702 26.8088 10.3778 27.0825 10.4326Z" fill="#DBF1F4"/>
<path d="M29.2812 8.03125H2.71875C1.54514 8.03125 0.59375 8.98264 0.59375 10.1562V23.9688C0.59375 25.1424 1.54514 26.0938 2.71875 26.0938H29.2812C30.4549 26.0938 31.4062 25.1424 31.4062 23.9688V10.1562C31.4062 8.98264 30.4549 8.03125 29.2812 8.03125Z" fill="#5ED8E8"/>
<path d="M31.4062 10.1562V23.9688C31.4063 24.2478 31.3514 24.5242 31.2446 24.782C31.1379 25.0399 30.9813 25.2742 30.784 25.4715C30.5867 25.6688 30.3524 25.8254 30.0945 25.9321C29.8367 26.0389 29.5603 26.0938 29.2812 26.0938H2.71875C2.43967 26.0938 2.16331 26.0389 1.90547 25.9321C1.64762 25.8254 1.41333 25.6688 1.21599 25.4715C1.01865 25.2742 0.86213 25.0399 0.755364 24.782C0.648597 24.5242 0.59368 24.2478 0.59375 23.9688V23.7775C0.79253 24.0046 1.03758 24.1866 1.31246 24.3112C1.58734 24.4358 1.88569 24.5002 2.1875 24.5H26.625C26.9041 24.5001 27.1804 24.4452 27.4383 24.3384C27.6961 24.2316 27.9304 24.0751 28.1278 23.8778C28.3251 23.6804 28.4816 23.4461 28.5884 23.1883C28.6952 22.9304 28.7501 22.6541 28.75 22.375V9.625C28.7502 9.32319 28.6858 9.02484 28.5612 8.74996C28.4366 8.47508 28.2546 8.23003 28.0275 8.03125H29.2812C29.5603 8.03118 29.8367 8.0861 30.0945 8.19286C30.3524 8.29963 30.5867 8.45615 30.784 8.65349C30.9813 8.85083 31.1379 9.08512 31.2446 9.34297C31.3514 9.60081 31.4063 9.87717 31.4062 10.1562Z" fill="#5ED8E8"/>
<path d="M28.2188 13.3438V20.7812C27.9397 20.7812 27.6633 20.8361 27.4055 20.9429C27.1476 21.0496 26.9133 21.2062 26.716 21.4035C26.5187 21.6008 26.3621 21.8351 26.2554 22.093C26.1486 22.3508 26.0937 22.6272 26.0938 22.9062H5.90625C5.90632 22.6272 5.8514 22.3508 5.74464 22.093C5.63787 21.8351 5.48135 21.6008 5.28401 21.4035C5.08667 21.2062 4.85238 21.0496 4.59454 20.9429C4.33669 20.8361 4.06033 20.7812 3.78125 20.7812V13.3438C4.06033 13.3438 4.33669 13.2889 4.59454 13.1821C4.85238 13.0754 5.08667 12.9188 5.28401 12.7215C5.48135 12.5242 5.63787 12.2899 5.74464 12.032C5.8514 11.7742 5.90632 11.4978 5.90625 11.2188H26.0938C26.0937 11.4978 26.1486 11.7742 26.2554 12.032C26.3621 12.2899 26.5187 12.5242 26.716 12.7215C26.9133 12.9188 27.1476 13.0754 27.4055 13.1821C27.6633 13.2889 27.9397 13.3438 28.2188 13.3438Z" fill="#DBF1F4"/>
<path d="M16 20.7812C18.0538 20.7812 19.7188 19.1163 19.7188 17.0625C19.7188 15.0087 18.0538 13.3438 16 13.3438C13.9462 13.3438 12.2812 15.0087 12.2812 17.0625C12.2812 19.1163 13.9462 20.7812 16 20.7812Z" fill="#5ED8E8"/>
<path d="M19.7188 17.0625C19.7191 17.551 19.6231 18.0347 19.4364 18.4861C19.2496 18.9374 18.9757 19.3475 18.6303 19.6929C18.2849 20.0383 17.8749 20.3122 17.4235 20.4989C16.9722 20.6857 16.4885 20.7816 16 20.7813C15.5454 20.7837 15.0946 20.6989 14.6719 20.5316C15.3749 20.2637 15.98 19.7885 16.4069 19.169C16.8338 18.5495 17.0624 17.8149 17.0624 17.0625C17.0624 16.3102 16.8338 15.5756 16.4069 14.9561C15.98 14.3366 15.3749 13.8614 14.6719 13.5935C15.0946 13.4262 15.5454 13.3414 16 13.3438C16.4885 13.3434 16.9722 13.4394 17.4235 13.6262C17.8749 13.8129 18.2849 14.0868 18.6303 14.4322C18.9757 14.7776 19.2496 15.1877 19.4364 15.639C19.6231 16.0904 19.7191 16.5741 19.7188 17.0625Z" fill="#5ED8E8"/>
<path d="M22.9062 14.4062C22.0609 14.4062 21.2501 14.7421 20.6523 15.3398C20.0546 15.9376 19.7188 16.7484 19.7188 17.5938V22.9062C18.5916 22.9062 17.5106 23.354 16.7135 24.151C15.9165 24.9481 15.4688 26.0291 15.4688 27.1562V31.4062H23.4375C23.7554 30.7407 23.9361 30.0181 23.9688 29.2812V15.4688C23.9688 15.187 23.8568 14.9167 23.6576 14.7174C23.4583 14.5182 23.188 14.4062 22.9062 14.4062Z" fill="#2BB0C1"/>
<path d="M23.9688 15.4687V15.5165C23.2261 15.641 22.5516 16.0248 22.0653 16.5996C21.5789 17.1745 21.3122 17.9032 21.3125 18.6562V23.4375C21.3125 23.7193 21.2006 23.9895 21.0013 24.1888C20.802 24.388 20.5318 24.5 20.25 24.5H19.7188C19.0143 24.5 18.3386 24.7798 17.8405 25.278C17.3424 25.7761 17.0625 26.4517 17.0625 27.1562V27.9531C17.0625 28.1645 16.9785 28.3671 16.8291 28.5166C16.6797 28.666 16.477 28.75 16.2656 28.75C16.0543 28.75 15.8516 28.666 15.7021 28.5166C15.5527 28.3671 15.4688 28.1645 15.4688 27.9531V27.1562C15.4686 26.5981 15.5784 26.0454 15.792 25.5297C16.0055 25.014 16.3186 24.5454 16.7132 24.1507C17.1079 23.756 17.5765 23.443 18.0922 23.2295C18.6079 23.0159 19.1606 22.9061 19.7188 22.9062V17.5937C19.7194 16.7521 20.0526 15.9449 20.6458 15.3479C21.2389 14.7509 22.044 14.4124 22.8855 14.4062C23.0266 14.4043 23.1666 14.4303 23.2976 14.4827C23.4285 14.5351 23.5478 14.613 23.6485 14.7118C23.7492 14.8106 23.8294 14.9283 23.8843 15.0582C23.9393 15.1881 23.968 15.3277 23.9688 15.4687Z" fill="#5ED8E8"/>
</svg>
