<svg width="34" height="34" viewBox="0 0 40 40" fill="none" xmlns="http://www.w3.org/2000/svg">
<path d="M34.1674 33.7547H9.12392C7.49173 33.7547 6.16943 32.4291 6.16943 30.7943C6.16943 29.1595 7.49238 27.834 9.12392 27.834H34.1674C32.862 29.5905 32.862 31.9975 34.1674 33.7547Z" fill="#DBF1F4"/>
<path d="M34.999 36.1783H9.19509C6.23215 36.1783 3.82129 33.7629 3.82129 30.7947C3.82129 27.8265 6.23215 25.4111 9.19509 25.4111H34.9983C35.65 25.4111 36.178 25.9404 36.178 26.5934C36.178 27.2465 35.65 27.7758 34.9983 27.7758H9.19509C7.53295 27.7758 6.18136 29.1306 6.18136 30.7954C6.18136 32.4601 7.5336 33.8149 9.19509 33.8149H34.9983C35.65 33.8149 36.178 34.3442 36.178 34.9973C36.178 35.6503 35.65 36.1796 34.9983 36.1796L34.999 36.1783Z" fill="#5ED8E8"/>
<path d="M34.1674 12.1648H9.12392C7.49173 12.1648 6.16943 10.8393 6.16943 9.20448C6.16943 7.56969 7.49238 6.24414 9.12392 6.24414H34.1674C32.862 8.00069 32.862 10.4076 34.1674 12.1648Z" fill="#DBF1F4"/>
<path d="M34.999 14.5886H9.19509C6.23215 14.5886 3.82129 12.1732 3.82129 9.20502C3.82129 6.23686 6.23215 3.8208 9.19509 3.8208H34.9983C35.65 3.8208 36.178 4.35011 36.178 5.00312C36.178 5.65612 35.65 6.18543 34.9983 6.18543H9.19509C7.53295 6.18543 6.18136 7.54027 6.18136 9.20502C6.18136 10.8698 7.5336 12.2246 9.19509 12.2246H34.9983C35.65 12.2246 36.178 12.7539 36.178 13.4069C36.178 14.0599 35.65 14.5892 34.9983 14.5892L34.999 14.5886Z" fill="#5ED8E8"/>
<path d="M5.8335 17.0664H30.877C32.5091 17.0664 33.8314 18.392 33.8314 20.0268C33.8314 21.6615 32.5085 22.9871 30.877 22.9871H5.8335C7.13886 21.2299 7.13886 18.8236 5.8335 17.0664Z" fill="#DBF1F4"/>
<path d="M5.00149 14.6424H30.8047C33.7677 14.6424 36.1785 17.0578 36.1785 20.026C36.1785 22.9941 33.7677 25.4096 30.8047 25.4096H5.00149C4.34978 25.4096 3.82178 24.8802 3.82178 24.2272C3.82178 23.5742 4.34978 23.0449 5.00149 23.0449H30.8047C32.4669 23.0449 33.8185 21.6901 33.8185 20.0253C33.8185 18.3606 32.4662 17.0057 30.8047 17.0057H5.00149C4.34978 17.0057 3.82178 16.4764 3.82178 15.8234C3.82178 15.1704 4.34978 14.6411 5.00149 14.6411V14.6424Z" fill="#2BB0C1"/>
<path d="M23.8472 20.0269H28.1363V30.1475L26.0295 28.1123L23.8472 30.1475V20.0269Z" fill="#2BB0C1"/>
</svg>
