<svg width="34" height="34" viewBox="0 0 40 40" fill="none" xmlns="http://www.w3.org/2000/svg">
<path d="M33.6132 36.1782C32.1965 36.1782 31.0481 35.0734 31.0481 33.7108V9.21403C31.0481 8.48747 30.4589 7.89893 29.733 7.89893H5.13663C4.41007 7.89893 3.82153 8.48747 3.82153 9.21403V33.7108C3.82153 35.0734 4.96996 36.1782 6.38663 36.1782H33.6138H33.6132Z" fill="#DBF1F4"/>
<path d="M5.92554 21.3809H15.1326V31.9036H5.92554V21.3809Z" fill="#2BB0C1"/>
<path d="M5.92554 9.9375H28.9438V18.7507H5.92554V9.9375Z" fill="#5ED8E8"/>
<path d="M7.85327 17.1341C8.1228 17.1341 8.34155 16.9154 8.34155 16.6458V13.6172L10.5584 16.8275C10.7055 17.0397 10.949 17.1302 11.1794 17.0586C11.4151 16.985 11.5675 16.7624 11.5675 16.4863L11.5245 12.0378C11.5219 11.7702 11.3045 11.554 11.0362 11.554H11.0317C10.7621 11.5566 10.5453 11.7773 10.5479 12.0469L10.5779 15.1367L8.25496 11.7734C8.10196 11.5514 7.79793 11.4954 7.57593 11.6484C7.44377 11.7396 7.36499 11.89 7.36499 12.0508V16.6458C7.36499 16.9154 7.58374 17.1341 7.85327 17.1341ZM13.1436 17.1341H15.0831C15.3526 17.1341 15.5714 16.9154 15.5714 16.6458C15.5714 16.3763 15.3526 16.1575 15.0831 16.1575H13.6319V14.832H14.9405C15.21 14.832 15.4288 14.6133 15.4288 14.3437C15.4288 14.0742 15.21 13.8555 14.9405 13.8555H13.6319V12.5306H15.0831C15.3526 12.5306 15.5714 12.3118 15.5714 12.0423C15.5714 11.7728 15.3526 11.554 15.0831 11.554H13.1436C12.8741 11.554 12.6554 11.7728 12.6554 12.0423V16.6458C12.6554 16.9154 12.8741 17.1341 13.1436 17.1341ZM25.6319 17.1341C26.5597 17.1341 27.3383 16.5456 27.4835 15.7337C27.5922 15.1263 27.3116 14.332 26.2009 13.9219C25.6215 13.7083 25.0831 13.4753 24.9327 13.4089C24.8136 13.3177 24.7563 13.1751 24.7784 13.0215C24.7927 12.9238 24.8624 12.6849 25.2055 12.5814C25.9014 12.3717 26.5375 12.8776 26.5525 12.89C26.7608 13.0612 27.0688 13.0306 27.24 12.8223C27.4086 12.6165 27.3819 12.3131 27.1788 12.1406C27.1371 12.1055 26.1365 11.2806 24.9236 11.6458C24.3207 11.8275 23.8949 12.3008 23.8116 12.8822C23.7335 13.4251 23.9692 13.9473 24.4255 14.2454C24.447 14.2598 24.4698 14.2721 24.4932 14.2825C24.9438 14.4811 25.4008 14.666 25.8624 14.8379C26.3324 15.0111 26.5727 15.2754 26.5212 15.5618C26.4692 15.8542 26.1215 16.1569 25.6313 16.1569C25.141 16.1569 24.6853 15.9616 24.3891 15.6348C24.2081 15.4349 23.8995 15.4199 23.6996 15.6009C23.4998 15.7819 23.4848 16.0905 23.6658 16.2904C24.1443 16.8184 24.8793 17.1335 25.6319 17.1335V17.1341ZM17.6059 16.6712C17.6104 16.6947 17.6169 16.7174 17.6248 16.7396C17.7087 16.9759 17.932 17.1335 18.1827 17.1335H18.1866C18.4386 17.1315 18.6619 16.9707 18.7432 16.7318L18.7472 16.7187L19.6814 13.7005L20.6117 16.7194C20.6899 16.9655 20.9184 17.1328 21.1762 17.1328H21.1801C21.432 17.1309 21.6554 16.97 21.7367 16.7311C21.7439 16.7109 21.7491 16.6901 21.7537 16.6693L22.6541 12.1445C22.7068 11.8802 22.5349 11.623 22.2706 11.5703C22.0063 11.5176 21.7491 11.6895 21.6964 11.9538L21.0955 14.972L20.1482 11.8965H20.1456C20.0968 11.7467 19.9776 11.6289 19.8259 11.582C19.5681 11.5026 19.2947 11.6465 19.2153 11.9043L18.2654 14.972L17.6664 11.9453C17.6111 11.6816 17.352 11.5124 17.0883 11.5677C16.8285 11.6224 16.6599 11.8737 16.7087 12.1348L17.6059 16.6693V16.6712Z" fill="#1A92A2"/>
<path d="M34.8954 3.82129C34.1871 3.82129 33.6129 4.39551 33.6129 5.10384V28.2204C33.6129 28.9469 33.0237 29.5355 32.2978 29.5355H31.0484V9.21387C31.0484 8.4873 30.4592 7.89876 29.7333 7.89876H6.51782V5.10384C6.51782 4.39551 7.09204 3.82129 7.80037 3.82129H34.8961H34.8954Z" fill="#DBF1F4"/>
<path d="M31.0486 33.7108C31.0486 35.0734 32.197 36.1782 33.6137 36.1782C35.0303 36.1782 36.1788 35.0734 36.1788 33.7108V5.13463C36.1788 4.43931 35.6378 3.84687 34.9431 3.82213C34.2133 3.79609 33.6137 4.38007 33.6137 5.10338V28.2206C33.6137 28.9471 33.0245 29.5357 32.2986 29.5357H31.0492V33.7108H31.0486Z" fill="#DBF1F4"/>
</svg>
