<svg width="34" height="34" viewBox="0 0 40 40" fill="none" xmlns="http://www.w3.org/2000/svg">
<path d="M27.8179 11.361C27.8179 13.5674 27.0269 15.477 25.4663 17.0375C23.9057 18.5981 21.9955 19.3891 19.7891 19.3891H19.7852C17.5821 19.3885 15.6731 18.5975 14.1126 17.0375C12.5513 15.4763 11.761 13.5668 11.761 11.361C11.761 9.15522 12.552 7.24568 14.1126 5.6851C15.6725 4.12453 17.5814 3.33415 19.7852 3.3335H19.7891C21.9949 3.3335 23.9045 4.12453 25.4657 5.6851C27.0263 7.24568 27.8173 9.15588 27.8173 11.361H27.8179Z" fill="#5ED8E8"/>
<path d="M33.9052 30.9341C33.9052 32.6744 33.3518 34.0839 32.2613 35.1217C31.1838 36.1471 29.7579 36.6667 28.0248 36.6667H11.9744C10.2413 36.6667 8.81548 36.1471 7.73864 35.1217C6.64747 34.0833 6.09473 32.6744 6.09473 30.9341C6.09473 30.2649 6.11686 29.6027 6.16114 28.9654C6.20606 28.3143 6.2972 27.606 6.43132 26.8585C6.56674 26.1046 6.74058 25.3924 6.94892 24.7413C7.16507 24.0675 7.4574 23.4027 7.81938 22.766C8.19504 22.1052 8.63709 21.529 9.13189 21.055C9.65078 20.5589 10.2849 20.1605 11.018 19.8701C11.7485 19.5811 12.5584 19.4346 13.4256 19.4346C13.7655 19.4346 14.0949 19.5739 14.7297 19.9873C15.1815 20.2816 15.6353 20.5739 16.0904 20.8643C16.5266 21.1423 17.1177 21.4034 17.8482 21.639C18.4902 21.8467 19.1425 21.9626 19.7864 21.9828C19.8574 21.9854 19.9284 21.9867 19.9993 21.9867C20.7142 21.9867 21.4375 21.8695 22.151 21.639C22.8815 21.4034 23.4733 21.1423 23.9095 20.8643C24.364 20.5746 24.8177 20.2822 25.2696 19.988C25.905 19.5739 26.2338 19.4346 26.5743 19.4346C27.4402 19.4346 28.2501 19.5811 28.9813 19.8701C29.7143 20.1605 30.3485 20.5596 30.8667 21.055C31.3622 21.529 31.8036 22.1045 32.1792 22.766C32.5412 23.4034 32.8342 24.0675 33.0497 24.7407C33.258 25.3924 33.4325 26.1046 33.5679 26.8592C33.7014 27.6073 33.7925 28.3163 33.8375 28.9654C33.8824 29.6001 33.9045 30.2623 33.9052 30.9341Z" fill="#2BB0C1"/>
</svg>
